<svg width="341" height="67" viewBox="0 0 341 67" fill="none" xmlns="http://www.w3.org/2000/svg">
<path d="M86.7713 19.4391C86.697 18.7434 86.3836 18.2017 85.8313 17.8141C85.2843 17.4264 84.5727 17.2325 83.6964 17.2325C83.0804 17.2325 82.5519 17.3255 82.1111 17.5114C81.6704 17.6972 81.3331 17.9495 81.0995 18.2681C80.8658 18.5868 80.7463 18.9506 80.741 19.3595C80.741 19.6994 80.818 19.9941 80.972 20.2437C81.1313 20.4933 81.3464 20.7058 81.6173 20.881C81.8881 21.051 82.1882 21.1943 82.5174 21.3112C82.8467 21.428 83.1786 21.5263 83.5132 21.6059L85.0427 21.9883C85.6587 22.1317 86.2509 22.3255 86.8191 22.5698C87.3927 22.8141 87.9052 23.1221 88.3566 23.4939C88.8133 23.8656 89.1744 24.3144 89.44 24.8402C89.7055 25.3659 89.8383 25.982 89.8383 26.6883C89.8383 27.6442 89.594 28.486 89.1054 29.2135C88.6168 29.9358 87.9105 30.5014 86.9864 30.9103C86.0676 31.3139 84.955 31.5157 83.6486 31.5157C82.3793 31.5157 81.2774 31.3193 80.3427 30.9263C79.4133 30.5333 78.6857 29.9597 78.16 29.2056C77.6395 28.4515 77.358 27.5327 77.3156 26.4493H80.2232C80.2657 27.0176 80.4409 27.4902 80.7489 27.8673C81.057 28.2443 81.4579 28.5258 81.9518 28.7117C82.451 28.8976 83.0087 28.9905 83.6247 28.9905C84.2673 28.9905 84.8302 28.8949 85.3135 28.7037C85.8021 28.5072 86.1845 28.2364 86.4606 27.8912C86.7368 27.5407 86.8775 27.1317 86.8828 26.6644C86.8775 26.2395 86.7527 25.889 86.5084 25.6129C86.2641 25.3314 85.9216 25.0977 85.4808 24.9119C85.0453 24.7207 84.5355 24.5507 83.9513 24.402L82.0952 23.9241C80.7516 23.5789 79.6895 23.0558 78.9088 22.3547C78.1334 21.6484 77.7457 20.7111 77.7457 19.5427C77.7457 18.5815 78.006 17.7397 78.5264 17.0175C79.0522 16.2952 79.7665 15.7349 80.6693 15.3366C81.5721 14.933 82.5944 14.7312 83.7362 14.7312C84.894 14.7312 85.9083 14.933 86.7793 15.3366C87.6556 15.7349 88.3433 16.2899 88.8425 17.0015C89.3417 17.7078 89.5993 18.5204 89.6152 19.4391H86.7713ZM97.7625 31.5078C96.5358 31.5078 95.4763 31.2529 94.5841 30.743C93.6972 30.2279 93.0147 29.5003 92.5368 28.5603C92.0588 27.615 91.8198 26.5024 91.8198 25.2225C91.8198 23.9639 92.0588 22.8593 92.5368 21.9086C93.0201 20.9527 93.6945 20.2092 94.5602 19.6781C95.4258 19.1417 96.4428 18.8736 97.6112 18.8736C98.3653 18.8736 99.0769 18.9957 99.7461 19.24C100.421 19.479 101.015 19.8507 101.53 20.3552C102.051 20.8598 102.46 21.5024 102.757 22.283C103.055 23.0584 103.203 23.9825 103.203 25.0552V25.9395H93.1741V23.9958H100.439C100.434 23.4434 100.314 22.9522 100.081 22.522C99.847 22.0865 99.5204 21.744 99.1008 21.4944C98.6866 21.2448 98.2033 21.12 97.651 21.12C97.0615 21.12 96.5437 21.2634 96.0976 21.5502C95.6515 21.8316 95.3037 22.2034 95.0541 22.6654C94.8098 23.1221 94.685 23.624 94.6797 24.171V25.8678C94.6797 26.5794 94.8098 27.1902 95.07 27.7C95.3302 28.2045 95.694 28.5922 96.1614 28.863C96.6287 29.1286 97.1757 29.2613 97.8024 29.2613C98.2219 29.2613 98.6016 29.2029 98.9415 29.0861C99.2814 28.9639 99.5761 28.786 99.8258 28.5524C100.075 28.3187 100.264 28.0293 100.391 27.6841L103.084 27.9868C102.914 28.6984 102.59 29.3198 102.112 29.8508C101.639 30.3766 101.034 30.7855 100.296 31.0776C99.5576 31.3644 98.7132 31.5078 97.7625 31.5078ZM110.964 36.1122C109.929 36.1122 109.039 35.9715 108.296 35.69C107.552 35.4138 106.955 35.0421 106.503 34.5747C106.052 34.1074 105.739 33.5896 105.563 33.0213L108.16 32.392C108.277 32.631 108.447 32.8673 108.67 33.101C108.893 33.34 109.193 33.5365 109.57 33.6905C109.953 33.8498 110.433 33.9295 111.012 33.9295C111.83 33.9295 112.507 33.7303 113.043 33.332C113.58 32.939 113.848 32.2911 113.848 31.3883V29.0702H113.705C113.556 29.3676 113.338 29.6729 113.051 29.9863C112.77 30.2996 112.396 30.5625 111.928 30.7749C111.466 30.9873 110.885 31.0935 110.184 31.0935C109.244 31.0935 108.391 30.8731 107.627 30.4324C106.867 29.9863 106.262 29.3224 105.81 28.4408C105.364 27.5539 105.141 26.444 105.141 25.111C105.141 23.7674 105.364 22.6336 105.81 21.7095C106.262 20.7801 106.87 20.0764 107.635 19.5985C108.399 19.1152 109.252 18.8736 110.192 18.8736C110.909 18.8736 111.498 18.9957 111.96 19.24C112.427 19.479 112.799 19.7684 113.075 20.1083C113.352 20.4429 113.561 20.7589 113.705 21.0563H113.864V19.0329H116.708V31.468C116.708 32.5142 116.458 33.3798 115.959 34.0649C115.46 34.75 114.777 35.2625 113.912 35.6024C113.046 35.9422 112.064 36.1122 110.964 36.1122ZM110.988 28.8312C111.599 28.8312 112.119 28.6825 112.55 28.3851C112.98 28.0877 113.306 27.6602 113.529 27.1025C113.752 26.5449 113.864 25.8758 113.864 25.0951C113.864 24.325 113.752 23.6506 113.529 23.0717C113.312 22.4928 112.988 22.0441 112.558 21.7254C112.133 21.4015 111.61 21.2395 110.988 21.2395C110.346 21.2395 109.809 21.4068 109.379 21.7413C108.949 22.0759 108.625 22.5353 108.407 23.1195C108.189 23.6984 108.081 24.3569 108.081 25.0951C108.081 25.8439 108.189 26.4998 108.407 27.0627C108.63 27.6203 108.957 28.0558 109.387 28.3691C109.823 28.6772 110.356 28.8312 110.988 28.8312ZM127.462 26.1227V19.0329H130.346V31.2688H127.55V29.0941H127.422C127.146 29.7791 126.692 30.3394 126.06 30.7749C125.433 31.2104 124.661 31.4281 123.742 31.4281C122.94 31.4281 122.231 31.2502 121.615 30.8944C121.004 30.5333 120.526 30.0102 120.181 29.3251C119.836 28.6347 119.663 27.8009 119.663 26.8237V19.0329H122.547V26.3776C122.547 27.153 122.759 27.769 123.184 28.2258C123.609 28.6825 124.167 28.9108 124.857 28.9108C125.282 28.9108 125.694 28.8073 126.092 28.6002C126.49 28.393 126.817 28.085 127.072 27.6761C127.332 27.2619 127.462 26.7441 127.462 26.1227ZM133.311 31.2688V19.0329H136.195V31.2688H133.311ZM134.761 17.2963C134.304 17.2963 133.911 17.1449 133.582 16.8422C133.253 16.5342 133.088 16.1651 133.088 15.7349C133.088 15.2994 133.253 14.9303 133.582 14.6276C133.911 14.3196 134.304 14.1656 134.761 14.1656C135.223 14.1656 135.616 14.3196 135.94 14.6276C136.269 14.9303 136.434 15.2994 136.434 15.7349C136.434 16.1651 136.269 16.5342 135.94 16.8422C135.616 17.1449 135.223 17.2963 134.761 17.2963ZM139.16 31.2688V19.0329H141.917V21.112H142.06C142.315 20.411 142.737 19.864 143.327 19.471C143.916 19.0727 144.62 18.8736 145.438 18.8736C146.266 18.8736 146.964 19.0754 147.533 19.479C148.106 19.8773 148.51 20.4216 148.744 21.112H148.871C149.142 20.4323 149.599 19.8906 150.241 19.4869C150.889 19.078 151.656 18.8736 152.543 18.8736C153.669 18.8736 154.588 19.2294 155.3 19.941C156.011 20.6526 156.367 21.6909 156.367 23.0558V31.2688H153.475V23.5019C153.475 22.7424 153.274 22.1874 152.87 21.8369C152.466 21.4811 151.972 21.3032 151.388 21.3032C150.693 21.3032 150.148 21.521 149.755 21.9564C149.368 22.3866 149.174 22.9469 149.174 23.6373V31.2688H146.346V23.3824C146.346 22.7504 146.155 22.2459 145.772 21.8688C145.395 21.4917 144.901 21.3032 144.291 21.3032C143.876 21.3032 143.499 21.4094 143.159 21.6219C142.819 21.829 142.549 22.1237 142.347 22.5061C142.145 22.8832 142.044 23.3239 142.044 23.8285V31.2688H139.16ZM164.71 31.5078C163.483 31.5078 162.423 31.2529 161.531 30.743C160.644 30.2279 159.962 29.5003 159.484 28.5603C159.006 27.615 158.767 26.5024 158.767 25.2225C158.767 23.9639 159.006 22.8593 159.484 21.9086C159.967 20.9527 160.642 20.2092 161.507 19.6781C162.373 19.1417 163.39 18.8736 164.558 18.8736C165.312 18.8736 166.024 18.9957 166.693 19.24C167.368 19.479 167.962 19.8507 168.478 20.3552C168.998 20.8598 169.407 21.5024 169.704 22.283C170.002 23.0584 170.15 23.9825 170.15 25.0552V25.9395H160.121V23.9958H167.386C167.381 23.4434 167.261 22.9522 167.028 22.522C166.794 22.0865 166.467 21.744 166.048 21.4944C165.634 21.2448 165.15 21.12 164.598 21.12C164.009 21.12 163.491 21.2634 163.045 21.5502C162.599 21.8316 162.251 22.2034 162.001 22.6654C161.757 23.1221 161.632 23.624 161.627 24.171V25.8678C161.627 26.5794 161.757 27.1902 162.017 27.7C162.277 28.2045 162.641 28.5922 163.108 28.863C163.576 29.1286 164.123 29.2613 164.749 29.2613C165.169 29.2613 165.549 29.2029 165.889 29.0861C166.228 28.9639 166.523 28.786 166.773 28.5524C167.022 28.3187 167.211 28.0293 167.338 27.6841L170.031 27.9868C169.861 28.6984 169.537 29.3198 169.059 29.8508C168.586 30.3766 167.981 30.7855 167.243 31.0776C166.505 31.3644 165.66 31.5078 164.71 31.5078ZM175.474 24.0993V31.2688H172.59V19.0329H175.346V21.112H175.49C175.771 20.4269 176.22 19.8826 176.836 19.479C177.457 19.0754 178.225 18.8736 179.138 18.8736C179.983 18.8736 180.718 19.0541 181.345 19.4152C181.977 19.7764 182.465 20.2995 182.811 20.9846C183.161 21.6697 183.334 22.5008 183.328 23.478V31.2688H180.445V23.9241C180.445 23.1062 180.232 22.4663 179.807 22.0042C179.388 21.5422 178.806 21.3112 178.063 21.3112C177.558 21.3112 177.109 21.4227 176.716 21.6458C176.329 21.8635 176.023 22.1795 175.8 22.5937C175.583 23.008 175.474 23.5098 175.474 24.0993ZM192.37 19.0329V21.2634H185.336V19.0329H192.37ZM187.072 16.1014H189.956V27.5885C189.956 27.9761 190.015 28.2735 190.131 28.4807C190.254 28.6825 190.413 28.8206 190.609 28.8949C190.806 28.9693 191.024 29.0064 191.263 29.0064C191.443 29.0064 191.608 28.9932 191.756 28.9666C191.911 28.94 192.027 28.9161 192.107 28.8949L192.593 31.1493C192.439 31.2024 192.219 31.2608 191.932 31.3246C191.65 31.3883 191.305 31.4255 190.896 31.4361C190.174 31.4573 189.523 31.3485 188.944 31.1095C188.366 30.8652 187.906 30.4881 187.566 29.9783C187.232 29.4685 187.067 28.8312 187.072 28.0664V16.1014ZM204.887 31.4839C203.925 31.4839 203.065 31.2369 202.306 30.743C201.546 30.2491 200.946 29.5322 200.505 28.5922C200.064 27.6522 199.844 26.5104 199.844 25.1668C199.844 23.8072 200.067 22.6601 200.513 21.7254C200.965 20.7854 201.573 20.0764 202.337 19.5985C203.102 19.1152 203.955 18.8736 204.895 18.8736C205.612 18.8736 206.201 18.9957 206.663 19.24C207.125 19.479 207.492 19.7684 207.762 20.1083C208.033 20.4429 208.243 20.7589 208.392 21.0563H208.511V14.9542H211.403V31.2688H208.567V29.341H208.392C208.243 29.6384 208.028 29.9544 207.746 30.289C207.465 30.6182 207.093 30.8997 206.631 31.1334C206.169 31.367 205.588 31.4839 204.887 31.4839ZM205.691 29.118C206.302 29.118 206.822 28.9533 207.253 28.6241C207.683 28.2895 208.009 27.8248 208.232 27.23C208.455 26.6352 208.567 25.9421 208.567 25.1508C208.567 24.3595 208.455 23.6718 208.232 23.0876C208.015 22.5034 207.691 22.0494 207.261 21.7254C206.836 21.4015 206.313 21.2395 205.691 21.2395C205.049 21.2395 204.512 21.4068 204.082 21.7413C203.652 22.0759 203.328 22.538 203.11 23.1274C202.892 23.7169 202.784 24.3914 202.784 25.1508C202.784 25.9156 202.892 26.598 203.11 27.1981C203.333 27.7929 203.66 28.2629 204.09 28.6081C204.525 28.948 205.059 29.118 205.691 29.118ZM216.921 14.9542V16.5793C216.921 17.0467 216.831 17.5326 216.651 18.0371C216.475 18.5363 216.234 19.0143 215.926 19.471C215.618 19.9224 215.267 20.3101 214.874 20.6341L213.536 19.7658C213.828 19.325 214.083 18.8497 214.301 18.3398C214.518 17.8247 214.627 17.2432 214.627 16.5953V14.9542H216.921ZM223.209 31.5078C222.014 31.5078 220.978 31.2449 220.102 30.7191C219.226 30.1934 218.546 29.4578 218.063 28.5125C217.585 27.5672 217.346 26.4626 217.346 25.1986C217.346 23.9347 217.585 22.8274 218.063 21.8768C218.546 20.9262 219.226 20.188 220.102 19.6622C220.978 19.1364 222.014 18.8736 223.209 18.8736C224.404 18.8736 225.439 19.1364 226.315 19.6622C227.192 20.188 227.869 20.9262 228.347 21.8768C228.83 22.8274 229.072 23.9347 229.072 25.1986C229.072 26.4626 228.83 27.5672 228.347 28.5125C227.869 29.4578 227.192 30.1934 226.315 30.7191C225.439 31.2449 224.404 31.5078 223.209 31.5078ZM223.225 29.1976C223.872 29.1976 224.414 29.0197 224.85 28.6639C225.285 28.3028 225.609 27.8195 225.822 27.2141C226.039 26.6086 226.148 25.9342 226.148 25.1907C226.148 24.4419 226.039 23.7647 225.822 23.1593C225.609 22.5486 225.285 22.0626 224.85 21.7015C224.414 21.3404 223.872 21.1598 223.225 21.1598C222.561 21.1598 222.008 21.3404 221.568 21.7015C221.132 22.0626 220.806 22.5486 220.588 23.1593C220.375 23.7647 220.269 24.4419 220.269 25.1907C220.269 25.9342 220.375 26.6086 220.588 27.2141C220.806 27.8195 221.132 28.3028 221.568 28.6639C222.008 29.0197 222.561 29.1976 223.225 29.1976ZM236.857 31.5078C235.635 31.5078 234.586 31.2396 233.71 30.7032C232.839 30.1668 232.167 29.426 231.695 28.4807C231.227 27.53 230.993 26.436 230.993 25.1986C230.993 23.9559 231.232 22.8593 231.71 21.9086C232.188 20.9527 232.863 20.2092 233.734 19.6781C234.61 19.1417 235.646 18.8736 236.841 18.8736C237.834 18.8736 238.713 19.0568 239.477 19.4232C240.247 19.7843 240.861 20.2968 241.318 20.9607C241.774 21.6192 242.035 22.3893 242.098 23.2708H239.342C239.23 22.6813 238.965 22.1901 238.545 21.7971C238.131 21.3988 237.576 21.1997 236.88 21.1997C236.291 21.1997 235.773 21.359 235.327 21.6776C234.881 21.991 234.533 22.4424 234.283 23.0319C234.039 23.6213 233.917 24.3277 233.917 25.1508C233.917 25.9846 234.039 26.7016 234.283 27.3017C234.528 27.8965 234.87 28.3559 235.311 28.6798C235.757 28.9985 236.28 29.1578 236.88 29.1578C237.305 29.1578 237.685 29.0781 238.02 28.9188C238.359 28.7542 238.644 28.5178 238.872 28.2098C239.1 27.9018 239.257 27.5274 239.342 27.0866H242.098C242.029 27.9522 241.774 28.7196 241.333 29.3888C240.893 30.0526 240.293 30.5731 239.533 30.9502C238.774 31.3219 237.882 31.5078 236.857 31.5078ZM249.883 31.5078C248.656 31.5078 247.597 31.2529 246.705 30.743C245.818 30.2279 245.135 29.5003 244.657 28.5603C244.179 27.615 243.94 26.5024 243.94 25.2225C243.94 23.9639 244.179 22.8593 244.657 21.9086C245.141 20.9527 245.815 20.2092 246.681 19.6781C247.546 19.1417 248.563 18.8736 249.732 18.8736C250.486 18.8736 251.198 18.9957 251.867 19.24C252.541 19.479 253.136 19.8507 253.651 20.3552C254.172 20.8598 254.58 21.5024 254.878 22.283C255.175 23.0584 255.324 23.9825 255.324 25.0552V25.9395H245.295V23.9958H252.56C252.554 23.4434 252.435 22.9522 252.201 22.522C251.968 22.0865 251.641 21.744 251.221 21.4944C250.807 21.2448 250.324 21.12 249.772 21.12C249.182 21.12 248.664 21.2634 248.218 21.5502C247.772 21.8316 247.424 22.2034 247.175 22.6654C246.93 23.1221 246.806 23.624 246.8 24.171V25.8678C246.8 26.5794 246.93 27.1902 247.191 27.7C247.451 28.2045 247.815 28.5922 248.282 28.863C248.749 29.1286 249.296 29.2613 249.923 29.2613C250.342 29.2613 250.722 29.2029 251.062 29.0861C251.402 28.9639 251.697 28.786 251.946 28.5524C252.196 28.3187 252.384 28.0293 252.512 27.6841L255.204 27.9868C255.035 28.6984 254.711 29.3198 254.233 29.8508C253.76 30.3766 253.155 30.7855 252.416 31.0776C251.678 31.3644 250.834 31.5078 249.883 31.5078ZM260.647 14.9542V31.2688H257.764V14.9542H260.647ZM266.496 14.9542V31.2688H263.613V14.9542H266.496ZM279.133 22.2671L276.504 22.5539C276.429 22.2884 276.299 22.0387 276.113 21.8051C275.933 21.5714 275.689 21.3829 275.381 21.2395C275.073 21.0961 274.695 21.0244 274.249 21.0244C273.649 21.0244 273.145 21.1545 272.736 21.4147C272.332 21.675 272.133 22.0122 272.138 22.4264C272.133 22.7823 272.263 23.0717 272.529 23.2947C272.8 23.5178 273.246 23.701 273.867 23.8444L275.954 24.2905C277.112 24.5401 277.972 24.9358 278.535 25.4774C279.103 26.0191 279.39 26.7281 279.395 27.6044C279.39 28.3745 279.164 29.0542 278.718 29.6437C278.278 30.2279 277.664 30.6846 276.878 31.0139C276.092 31.3431 275.189 31.5078 274.17 31.5078C272.672 31.5078 271.467 31.1944 270.553 30.5678C269.64 29.9358 269.095 29.0569 268.92 27.931L271.732 27.6602C271.86 28.2125 272.13 28.6294 272.545 28.9108C272.959 29.1923 273.498 29.333 274.162 29.333C274.847 29.333 275.397 29.1923 275.811 28.9108C276.23 28.6294 276.44 28.2815 276.44 27.8673C276.44 27.5168 276.305 27.2273 276.034 26.999C275.768 26.7706 275.354 26.5954 274.791 26.4732L272.704 26.0351C271.53 25.7908 270.662 25.3792 270.099 24.8003C269.536 24.2161 269.257 23.478 269.263 22.5858C269.257 21.8316 269.462 21.1784 269.876 20.6261C270.296 20.0685 270.877 19.6383 271.621 19.3356C272.369 19.0276 273.232 18.8736 274.21 18.8736C275.643 18.8736 276.772 19.1789 277.595 19.7897C278.424 20.4004 278.936 21.2262 279.133 22.2671ZM287.338 31.2688V19.0329H290.134V21.0722H290.261C290.484 20.3659 290.867 19.8215 291.408 19.4391C291.955 19.0515 292.579 18.8576 293.28 18.8576C293.44 18.8576 293.618 18.8656 293.814 18.8815C294.016 18.8921 294.183 18.9107 294.316 18.9373V21.59C294.194 21.5475 294 21.5103 293.734 21.4785C293.474 21.4413 293.222 21.4227 292.978 21.4227C292.452 21.4227 291.979 21.5369 291.56 21.7652C291.145 21.9883 290.819 22.299 290.58 22.6973C290.341 23.0956 290.221 23.555 290.221 24.0754V31.2688H287.338ZM299.534 31.5157C298.758 31.5157 298.06 31.3777 297.439 31.1015C296.823 30.82 296.334 30.4058 295.973 29.8588C295.617 29.3118 295.439 28.6373 295.439 27.8354C295.439 27.145 295.567 26.5741 295.822 26.1227C296.077 25.6713 296.424 25.3102 296.865 25.0393C297.306 24.7685 297.802 24.564 298.355 24.4259C298.912 24.2825 299.489 24.179 300.083 24.1152C300.8 24.0409 301.382 23.9745 301.828 23.9161C302.274 23.8524 302.598 23.7568 302.8 23.6293C303.007 23.4965 303.111 23.2921 303.111 23.0159V22.9681C303.111 22.368 302.933 21.9033 302.577 21.5741C302.221 21.2448 301.709 21.0802 301.039 21.0802C300.333 21.0802 299.773 21.2342 299.359 21.5422C298.95 21.8502 298.673 22.214 298.53 22.6336L295.838 22.2512C296.05 21.5077 296.4 20.8863 296.889 20.3871C297.378 19.8826 297.975 19.5055 298.681 19.2559C299.388 19.001 300.168 18.8736 301.023 18.8736C301.613 18.8736 302.2 18.9426 302.784 19.0807C303.368 19.2188 303.902 19.4471 304.385 19.7658C304.868 20.0791 305.256 20.5066 305.548 21.0483C305.846 21.59 305.994 22.2671 305.994 23.0797V31.2688H303.222V29.588H303.126C302.951 29.9278 302.704 30.2465 302.386 30.5439C302.072 30.836 301.677 31.0723 301.199 31.2529C300.726 31.4281 300.171 31.5157 299.534 31.5157ZM300.283 29.3968C300.861 29.3968 301.363 29.2826 301.788 29.0542C302.213 28.8206 302.54 28.5125 302.768 28.1302C303.002 27.7478 303.119 27.3309 303.119 26.8795V25.4376C303.028 25.512 302.874 25.581 302.656 25.6447C302.444 25.7085 302.205 25.7642 301.94 25.812C301.674 25.8598 301.411 25.9023 301.151 25.9395C300.891 25.9767 300.665 26.0085 300.474 26.0351C300.044 26.0935 299.659 26.1891 299.319 26.3219C298.979 26.4546 298.711 26.6405 298.514 26.8795C298.318 27.1132 298.219 27.4159 298.219 27.7876C298.219 28.3187 298.413 28.7196 298.801 28.9905C299.189 29.2613 299.682 29.3968 300.283 29.3968ZM308.894 31.2688V19.0329H311.69V21.0722H311.817C312.041 20.3659 312.423 19.8215 312.965 19.4391C313.512 19.0515 314.136 18.8576 314.837 18.8576C314.996 18.8576 315.174 18.8656 315.37 18.8815C315.572 18.8921 315.739 18.9107 315.872 18.9373V21.59C315.75 21.5475 315.556 21.5103 315.291 21.4785C315.03 21.4413 314.778 21.4227 314.534 21.4227C314.008 21.4227 313.536 21.5369 313.116 21.7652C312.702 21.9883 312.375 22.299 312.136 22.6973C311.897 23.0956 311.778 23.555 311.778 24.0754V31.2688H308.894ZM327.459 22.2671L324.83 22.5539C324.756 22.2884 324.626 22.0387 324.44 21.8051C324.259 21.5714 324.015 21.3829 323.707 21.2395C323.399 21.0961 323.022 21.0244 322.576 21.0244C321.976 21.0244 321.471 21.1545 321.062 21.4147C320.659 21.675 320.459 22.0122 320.465 22.4264C320.459 22.7823 320.59 23.0717 320.855 23.2947C321.126 23.5178 321.572 23.701 322.193 23.8444L324.28 24.2905C325.438 24.5401 326.299 24.9358 326.861 25.4774C327.43 26.0191 327.717 26.7281 327.722 27.6044C327.717 28.3745 327.491 29.0542 327.045 29.6437C326.604 30.2279 325.991 30.6846 325.205 31.0139C324.419 31.3431 323.516 31.5078 322.496 31.5078C320.998 31.5078 319.793 31.1944 318.879 30.5678C317.966 29.9358 317.422 29.0569 317.246 27.931L320.058 27.6602C320.186 28.2125 320.457 28.6294 320.871 28.9108C321.285 29.1923 321.824 29.333 322.488 29.333C323.173 29.333 323.723 29.1923 324.137 28.9108C324.557 28.6294 324.766 28.2815 324.766 27.8673C324.766 27.5168 324.631 27.2273 324.36 26.999C324.095 26.7706 323.68 26.5954 323.117 26.4732L321.03 26.0351C319.857 25.7908 318.988 25.3792 318.425 24.8003C317.862 24.2161 317.584 23.478 317.589 22.5858C317.584 21.8316 317.788 21.1784 318.202 20.6261C318.622 20.0685 319.203 19.6383 319.947 19.3356C320.696 19.0276 321.559 18.8736 322.536 18.8736C323.97 18.8736 325.098 19.1789 325.921 19.7897C326.75 20.4004 327.262 21.2262 327.459 22.2671ZM82.3183 58.4839C81.357 58.4839 80.4967 58.2369 79.7373 57.743C78.9778 57.2491 78.3777 56.5322 77.9369 55.5922C77.4961 54.6522 77.2757 53.5104 77.2757 52.1668C77.2757 50.8072 77.4988 49.6601 77.9449 48.7254C78.3963 47.7854 79.0044 47.0764 79.7691 46.5985C80.5339 46.1152 81.3862 45.8736 82.3262 45.8736C83.0432 45.8736 83.6327 45.9957 84.0947 46.24C84.5567 46.479 84.9232 46.7684 85.194 47.1083C85.4649 47.4429 85.6746 47.7589 85.8233 48.0563H85.9428V41.9542H88.8345V58.2688H85.9986V56.341H85.8233C85.6746 56.6384 85.4596 56.9544 85.1781 57.289C84.8966 57.6182 84.5249 57.8997 84.0628 58.1334C83.6008 58.367 83.0193 58.4839 82.3183 58.4839ZM83.1228 56.118C83.7336 56.118 84.254 55.9533 84.6842 55.6241C85.1144 55.2895 85.441 54.8248 85.664 54.23C85.8871 53.6352 85.9986 52.9421 85.9986 52.1508C85.9986 51.3595 85.8871 50.6718 85.664 50.0876C85.4463 49.5034 85.1223 49.0494 84.6922 48.7254C84.2673 48.4015 83.7442 48.2395 83.1228 48.2395C82.4802 48.2395 81.9439 48.4068 81.5137 48.7413C81.0835 49.0759 80.7596 49.538 80.5418 50.1274C80.3241 50.7169 80.2152 51.3914 80.2152 52.1508C80.2152 52.9156 80.3241 53.598 80.5418 54.1981C80.7649 54.7929 81.0915 55.2629 81.5217 55.6081C81.9571 55.948 82.4909 56.118 83.1228 56.118ZM97.3244 58.5078C96.0976 58.5078 95.0381 58.2529 94.1459 57.743C93.259 57.2279 92.5766 56.5003 92.0986 55.5603C91.6207 54.615 91.3817 53.5024 91.3817 52.2225C91.3817 50.9639 91.6207 49.8593 92.0986 48.9086C92.5819 47.9527 93.2564 47.2092 94.122 46.6781C94.9877 46.1417 96.0047 45.8736 97.173 45.8736C97.9272 45.8736 98.6388 45.9957 99.308 46.24C99.9824 46.479 100.577 46.8507 101.092 47.3552C101.613 47.8598 102.022 48.5024 102.319 49.283C102.617 50.0584 102.765 50.9825 102.765 52.0552V52.9395H92.7359V50.9958H100.001C99.9957 50.4434 99.8762 49.9522 99.6425 49.522C99.4089 49.0865 99.0823 48.744 98.6627 48.4944C98.2485 48.2448 97.7652 48.12 97.2129 48.12C96.6234 48.12 96.1056 48.2634 95.6595 48.5502C95.2134 48.8316 94.8655 49.2034 94.6159 49.6654C94.3716 50.1221 94.2468 50.624 94.2415 51.171V52.8678C94.2415 53.5794 94.3716 54.1902 94.6319 54.7C94.8921 55.2045 95.2559 55.5922 95.7232 55.863C96.1906 56.1286 96.7376 56.2613 97.3642 56.2613C97.7838 56.2613 98.1635 56.2029 98.5034 56.0861C98.8433 55.9639 99.138 55.786 99.3876 55.5524C99.6372 55.3187 99.8258 55.0293 99.9532 54.6841L102.646 54.9868C102.476 55.6984 102.152 56.3198 101.674 56.8508C101.201 57.3766 100.596 57.7855 99.8576 58.0776C99.1194 58.3644 98.275 58.5078 97.3244 58.5078ZM124.861 47.4588H121.882C121.797 46.9702 121.64 46.5374 121.412 46.1603C121.184 45.778 120.899 45.454 120.56 45.1885C120.22 44.9229 119.832 44.7238 119.396 44.591C118.966 44.4529 118.502 44.3839 118.002 44.3839C117.116 44.3839 116.33 44.6069 115.644 45.053C114.959 45.4938 114.423 46.1417 114.035 46.9968C113.648 47.8465 113.454 48.8847 113.454 50.1115C113.454 51.3595 113.648 52.4111 114.035 53.2661C114.428 54.1158 114.965 54.7584 115.644 55.1939C116.33 55.6241 117.113 55.8391 117.994 55.8391C118.483 55.8391 118.94 55.7754 119.365 55.648C119.795 55.5152 120.18 55.3213 120.52 55.0664C120.865 54.8115 121.154 54.4982 121.388 54.1264C121.627 53.7547 121.792 53.3298 121.882 52.8519L124.861 52.8678C124.75 53.6432 124.508 54.3707 124.136 55.0505C123.77 55.7303 123.289 56.3304 122.694 56.8508C122.1 57.366 121.404 57.7696 120.607 58.0617C119.811 58.3485 118.926 58.4918 117.955 58.4918C116.521 58.4918 115.241 58.1599 114.115 57.4961C112.989 56.8322 112.102 55.8737 111.454 54.6203C110.806 53.367 110.482 51.8641 110.482 50.1115C110.482 48.3537 110.809 46.8507 111.462 45.6027C112.115 44.3494 113.005 43.3908 114.131 42.7269C115.257 42.0631 116.531 41.7312 117.955 41.7312C118.863 41.7312 119.707 41.8586 120.488 42.1136C121.268 42.3685 121.964 42.7429 122.575 43.2368C123.186 43.7254 123.688 44.3255 124.081 45.0371C124.479 45.7434 124.739 46.5507 124.861 47.4588ZM130.961 58.5157C130.186 58.5157 129.488 58.3777 128.866 58.1015C128.25 57.82 127.762 57.4058 127.4 56.8588C127.045 56.3118 126.867 55.6373 126.867 54.8354C126.867 54.145 126.994 53.5741 127.249 53.1227C127.504 52.6713 127.852 52.3102 128.293 52.0393C128.733 51.7685 129.23 51.564 129.782 51.4259C130.34 51.2825 130.916 51.179 131.511 51.1152C132.228 51.0409 132.809 50.9745 133.255 50.9161C133.702 50.8524 134.026 50.7568 134.227 50.6293C134.434 50.4965 134.538 50.2921 134.538 50.0159V49.9681C134.538 49.368 134.36 48.9033 134.004 48.5741C133.648 48.2448 133.136 48.0802 132.467 48.0802C131.761 48.0802 131.2 48.2342 130.786 48.5422C130.377 48.8502 130.101 49.214 129.958 49.6336L127.265 49.2512C127.477 48.5077 127.828 47.8863 128.316 47.3871C128.805 46.8826 129.403 46.5055 130.109 46.2559C130.815 46.001 131.596 45.8736 132.451 45.8736C133.04 45.8736 133.627 45.9426 134.211 46.0807C134.796 46.2188 135.329 46.4471 135.813 46.7658C136.296 47.0791 136.684 47.5066 136.976 48.0483C137.273 48.59 137.422 49.2671 137.422 50.0797V58.2688H134.65V56.588H134.554C134.379 56.9278 134.132 57.2465 133.813 57.5439C133.5 57.836 133.104 58.0723 132.626 58.2529C132.153 58.4281 131.599 58.5157 130.961 58.5157ZM131.71 56.3968C132.289 56.3968 132.791 56.2826 133.216 56.0542C133.641 55.8206 133.967 55.5125 134.195 55.1302C134.429 54.7478 134.546 54.3309 134.546 53.8795V52.4376C134.456 52.512 134.302 52.581 134.084 52.6447C133.872 52.7085 133.633 52.7642 133.367 52.812C133.101 52.8598 132.839 52.9023 132.578 52.9395C132.318 52.9767 132.092 53.0085 131.901 53.0351C131.471 53.0935 131.086 53.1891 130.746 53.3219C130.406 53.4546 130.138 53.6405 129.942 53.8795C129.745 54.1132 129.647 54.4159 129.647 54.7876C129.647 55.3187 129.841 55.7196 130.228 55.9905C130.616 56.2613 131.11 56.3968 131.71 56.3968ZM146.431 46.0329V48.2634H139.397V46.0329H146.431ZM141.134 43.1014H144.018V54.5885C144.018 54.9761 144.076 55.2735 144.193 55.4807C144.315 55.6825 144.474 55.8206 144.671 55.8949C144.867 55.9693 145.085 56.0064 145.324 56.0064C145.505 56.0064 145.669 55.9932 145.818 55.9666C145.972 55.94 146.089 55.9161 146.169 55.8949L146.654 58.1493C146.5 58.2024 146.28 58.2608 145.993 58.3246C145.712 58.3883 145.367 58.4255 144.958 58.4361C144.235 58.4573 143.585 58.3485 143.006 58.1095C142.427 57.8652 141.968 57.4881 141.628 56.9783C141.293 56.4685 141.129 55.8312 141.134 55.0664V43.1014ZM152.364 58.5157C151.589 58.5157 150.89 58.3777 150.269 58.1015C149.653 57.82 149.164 57.4058 148.803 56.8588C148.447 56.3118 148.27 55.6373 148.27 54.8354C148.27 54.145 148.397 53.5741 148.652 53.1227C148.907 52.6713 149.255 52.3102 149.696 52.0393C150.136 51.7685 150.633 51.564 151.185 51.4259C151.743 51.2825 152.319 51.179 152.914 51.1152C153.631 51.0409 154.212 50.9745 154.658 50.9161C155.104 50.8524 155.428 50.7568 155.63 50.6293C155.837 50.4965 155.941 50.2921 155.941 50.0159V49.9681C155.941 49.368 155.763 48.9033 155.407 48.5741C155.051 48.2448 154.539 48.0802 153.87 48.0802C153.163 48.0802 152.603 48.2342 152.189 48.5422C151.78 48.8502 151.504 49.214 151.36 49.6336L148.668 49.2512C148.88 48.5077 149.231 47.8863 149.719 47.3871C150.208 46.8826 150.805 46.5055 151.512 46.2559C152.218 46.001 152.999 45.8736 153.854 45.8736C154.443 45.8736 155.03 45.9426 155.614 46.0807C156.198 46.2188 156.732 46.4471 157.216 46.7658C157.699 47.0791 158.086 47.5066 158.379 48.0483C158.676 48.59 158.825 49.2671 158.825 50.0797V58.2688H156.052V56.588H155.957C155.782 56.9278 155.535 57.2465 155.216 57.5439C154.903 57.836 154.507 58.0723 154.029 58.2529C153.556 58.4281 153.001 58.5157 152.364 58.5157ZM153.113 56.3968C153.692 56.3968 154.194 56.2826 154.619 56.0542C155.043 55.8206 155.37 55.5125 155.598 55.1302C155.832 54.7478 155.949 54.3309 155.949 53.8795V52.4376C155.859 52.512 155.705 52.581 155.487 52.6447C155.274 52.7085 155.035 52.7642 154.77 52.812C154.504 52.8598 154.241 52.9023 153.981 52.9395C153.721 52.9767 153.495 53.0085 153.304 53.0351C152.874 53.0935 152.489 53.1891 152.149 53.3219C151.809 53.4546 151.541 53.6405 151.344 53.8795C151.148 54.1132 151.05 54.4159 151.05 54.7876C151.05 55.3187 151.244 55.7196 151.631 55.9905C152.019 56.2613 152.513 56.3968 153.113 56.3968ZM164.608 41.9542V58.2688H161.724V41.9542H164.608ZM175.372 53.1227V46.0329H178.256V58.2688H175.46V56.0941H175.332C175.056 56.7791 174.602 57.3394 173.97 57.7749C173.344 58.2104 172.571 58.4281 171.652 58.4281C170.85 58.4281 170.141 58.2502 169.525 57.8944C168.914 57.5333 168.436 57.0102 168.091 56.3251C167.746 55.6347 167.573 54.8009 167.573 53.8237V46.0329H170.457V53.3776C170.457 54.153 170.67 54.769 171.094 55.2258C171.519 55.6825 172.077 55.9108 172.767 55.9108C173.192 55.9108 173.604 55.8073 174.002 55.6002C174.4 55.393 174.727 55.085 174.982 54.6761C175.242 54.2619 175.372 53.7441 175.372 53.1227ZM184.105 51.0993V58.2688H181.221V46.0329H183.978V48.112H184.121C184.402 47.4269 184.851 46.8826 185.467 46.479C186.089 46.0754 186.856 45.8736 187.769 45.8736C188.614 45.8736 189.349 46.0541 189.976 46.4152C190.608 46.7764 191.097 47.2995 191.442 47.9846C191.792 48.6697 191.965 49.5008 191.96 50.478V58.2688H189.076V50.9241C189.076 50.1062 188.863 49.4663 188.439 49.0042C188.019 48.5422 187.438 48.3112 186.694 48.3112C186.19 48.3112 185.741 48.4227 185.348 48.6458C184.96 48.8635 184.655 49.1795 184.432 49.5937C184.214 50.008 184.105 50.5098 184.105 51.0993ZM196.245 62.8573C195.852 62.8573 195.489 62.8254 195.154 62.7617C194.825 62.7033 194.562 62.6342 194.365 62.5546L195.035 60.3081C195.454 60.4303 195.828 60.4887 196.158 60.4834C196.487 60.4781 196.776 60.3745 197.026 60.1727C197.281 59.9762 197.496 59.6469 197.671 59.1849L197.918 58.5237L193.481 46.0329H196.54L199.36 55.2735H199.488L202.316 46.0329H205.382L200.483 59.7505C200.255 60.3984 199.952 60.9534 199.575 61.4154C199.198 61.8828 198.736 62.2386 198.189 62.4829C197.647 62.7325 197 62.8573 196.245 62.8573ZM210.549 58.5157C209.773 58.5157 209.075 58.3777 208.453 58.1015C207.837 57.82 207.349 57.4058 206.988 56.8588C206.632 56.3118 206.454 55.6373 206.454 54.8354C206.454 54.145 206.581 53.5741 206.836 53.1227C207.091 52.6713 207.439 52.3102 207.88 52.0393C208.321 51.7685 208.817 51.564 209.37 51.4259C209.927 51.2825 210.503 51.179 211.098 51.1152C211.815 51.0409 212.397 50.9745 212.843 50.9161C213.289 50.8524 213.613 50.7568 213.815 50.6293C214.022 50.4965 214.125 50.2921 214.125 50.0159V49.9681C214.125 49.368 213.947 48.9033 213.592 48.5741C213.236 48.2448 212.723 48.0802 212.054 48.0802C211.348 48.0802 210.787 48.2342 210.373 48.5422C209.964 48.8502 209.688 49.214 209.545 49.6336L206.852 49.2512C207.065 48.5077 207.415 47.8863 207.904 47.3871C208.392 46.8826 208.99 46.5055 209.696 46.2559C210.402 46.001 211.183 45.8736 212.038 45.8736C212.628 45.8736 213.215 45.9426 213.799 46.0807C214.383 46.2188 214.917 46.4471 215.4 46.7658C215.883 47.0791 216.271 47.5066 216.563 48.0483C216.86 48.59 217.009 49.2671 217.009 50.0797V58.2688H214.237V56.588H214.141C213.966 56.9278 213.719 57.2465 213.4 57.5439C213.087 57.836 212.691 58.0723 212.213 58.2529C211.741 58.4281 211.186 58.5157 210.549 58.5157ZM211.297 56.3968C211.876 56.3968 212.378 56.2826 212.803 56.0542C213.228 55.8206 213.554 55.5125 213.783 55.1302C214.016 54.7478 214.133 54.3309 214.133 53.8795V52.4376C214.043 52.512 213.889 52.581 213.671 52.6447C213.459 52.7085 213.22 52.7642 212.954 52.812C212.689 52.8598 212.426 52.9023 212.166 52.9395C211.905 52.9767 211.68 53.0085 211.489 53.0351C211.058 53.0935 210.673 53.1891 210.333 53.3219C209.994 53.4546 209.725 53.6405 209.529 53.8795C209.332 54.1132 209.234 54.4159 209.234 54.7876C209.234 55.3187 209.428 55.7196 209.816 55.9905C210.203 56.2613 210.697 56.3968 211.297 56.3968Z" fill="black"/>
<rect y="5.82178" width="60.7833" height="61.0171" rx="18.3776" fill="#009688"/>
<path d="M66.1986 5.32617C66.3215 5.33731 66.4443 5.34846 66.5708 5.35995C66.4234 6.23302 66.097 6.98402 65.7253 7.78483C65.8289 7.69023 65.9324 7.59563 66.0391 7.49817C66.176 7.37329 66.3129 7.24842 66.4498 7.12356C66.5179 7.06129 66.586 6.99903 66.6562 6.93488C67.659 6.0207 67.659 6.0207 68.1383 6.00257C68.2165 6.05094 68.2946 6.09931 68.3752 6.14915C68.3549 6.83403 68.208 7.24938 67.8475 7.82893C67.5317 8.29061 67.5317 8.29061 67.3831 8.81089C67.4803 8.75505 67.5774 8.69921 67.6774 8.64167C67.8059 8.57094 67.9344 8.50021 68.0667 8.42734C68.1936 8.35614 68.3205 8.28494 68.4513 8.21159C68.8738 8.04801 69.0283 8.0681 69.4354 8.24669C69.3168 8.81106 69.1278 9.20289 68.7978 9.67415C68.7189 9.78792 68.6401 9.90169 68.5588 10.0189C68.4984 10.104 68.4379 10.1892 68.3757 10.2769C68.4948 10.2924 68.614 10.3079 68.7368 10.3238C68.8928 10.3462 69.0488 10.3686 69.2094 10.3917C69.4416 10.4236 69.4416 10.4236 69.6784 10.4562C70.336 10.6155 70.336 10.6155 70.5634 10.9758C70.6771 11.9822 70.1433 12.8012 69.676 13.648C69.2466 14.4664 68.9274 15.3577 69.2008 16.281C69.236 16.3681 69.2712 16.4553 69.3075 16.5452C69.5845 17.247 69.5357 17.8942 69.369 18.6224C69.0066 19.278 68.3555 19.7019 67.7713 20.1582C67.1297 20.7444 66.9484 21.3018 66.8604 22.1471C66.7834 22.8869 66.6723 23.4929 66.085 24.0045C65.7989 24.2229 65.5048 24.428 65.2079 24.6314C63.7809 25.6621 63.213 27.1078 62.5984 28.6941C62.3576 29.315 62.1094 29.9329 61.8623 30.5513C61.8129 30.6756 61.7634 30.8 61.7125 30.9281C61.2826 32.0072 60.8383 33.0794 60.3764 34.1451C60.3001 34.3217 60.2243 34.4985 60.1492 34.6756C59.7518 35.6115 59.3158 36.5036 58.7858 37.3723C58.7396 37.4487 58.6934 37.525 58.6457 37.6037C58.1646 38.3673 57.5392 38.963 56.8774 39.5693C54.3114 41.8216 54.3114 41.8216 52.8406 44.7572C53.0699 45.5565 53.725 46.1115 54.4353 46.5152C54.672 46.6345 54.9106 46.7478 55.1512 46.8588C55.27 46.9152 55.27 46.9152 55.3912 46.9727C55.5497 47.0474 55.7086 47.1212 55.868 47.1939C56.0368 47.2711 56.2051 47.3495 56.3726 47.4295C57.081 47.7575 57.7879 47.9522 58.5474 48.1248C58.6723 48.1541 58.7971 48.1835 58.9257 48.2137C59.322 48.3067 59.7186 48.3984 60.1153 48.4899C64.6362 49.5377 64.6362 49.5377 65.0201 49.9983C65.0004 50.3014 65.0004 50.3014 64.8397 50.6074C64.3738 50.8019 63.9271 50.9079 63.4302 50.9797C63.4288 51.0746 63.4275 51.1694 63.4261 51.2671C63.4205 51.3909 63.4149 51.5148 63.4091 51.6423C63.4052 51.7653 63.4013 51.8883 63.3973 52.015C63.3063 52.3444 63.3063 52.3444 63.059 52.5501C62.4549 52.7137 61.8936 52.6469 61.2744 52.5977C60.027 52.5207 58.9602 52.5858 57.7476 52.8937C57.6524 52.9173 57.5571 52.941 57.4589 52.9654C57.2772 53.0111 57.0961 53.0588 56.9157 53.1095C54.8746 53.6363 52.6457 53.4779 50.5589 53.4465C50.2853 53.443 50.0117 53.4395 49.7381 53.4361C49.3358 53.4311 48.9334 53.426 48.5311 53.4205C47.8403 53.411 47.1498 53.4045 46.459 53.4041C39.5071 53.3997 32.7635 51.1905 27.7572 46.1875C27.6899 46.1196 27.6227 46.0517 27.5534 45.9817C23.5004 41.9111 16.56 38.8722 10.8546 38.4763C9.81254 38.3901 8.89399 38.1418 7.90918 37.8007C6.6881 37.3827 5.44241 37.1666 4.16949 36.9697C4.1946 36.6984 4.1946 36.6984 4.34984 36.3607C4.67398 36.1367 5.03114 35.9884 5.39075 35.8298C6.49424 35.3167 7.53126 34.7289 8.57105 34.0981C10.0024 33.2318 10.0024 33.2318 10.8822 33.2872C10.9901 33.2923 11.0979 33.2975 11.2091 33.3027C12.4802 33.5817 13.5283 34.3837 14.5726 35.1205C15.871 36.0167 17.2824 36.4178 18.7812 36.8577C18.8753 36.8855 18.9694 36.9132 19.0664 36.9418C21.7708 37.7381 24.4565 38.2972 27.2573 38.6356C27.4287 38.6565 27.6002 38.6776 27.7716 38.6986C28.1851 38.7493 28.5987 38.7996 29.0123 38.8496C28.8537 38.4804 28.6942 38.1116 28.5343 37.743C28.4843 37.6277 28.4343 37.5124 28.3828 37.3936C28.0933 36.7316 27.7952 36.0751 27.4839 35.4231C27.4188 35.2864 27.3537 35.1497 27.2866 35.0089C27.1598 34.7442 27.032 34.48 26.9031 34.2163C25.9869 32.3015 25.9157 30.9429 26.5897 28.9456C26.7079 28.4736 26.6954 28.1111 26.6541 27.6284C26.6607 26.2655 27.0297 25.1723 27.6121 23.9629C27.6669 23.8476 27.7218 23.7324 27.7782 23.6137C28.6042 21.8891 29.5002 20.208 30.4412 18.5441C30.4868 18.463 30.5323 18.382 30.5793 18.2984C32.1989 15.4251 32.1989 15.4251 33.362 14.3532C33.6588 14.2707 33.6588 14.2707 33.8695 14.2742C34.114 14.6161 34.1927 14.8539 34.1511 15.2731C34.0875 15.6116 34.0175 15.9468 33.9374 16.2817C34.0123 16.1672 34.0871 16.0528 34.1643 15.9349C34.5011 15.5824 34.5011 15.5824 34.9762 15.5161C35.1097 15.523 35.2432 15.53 35.3807 15.5371C35.6347 16.401 35.457 17.1603 35.2795 18.0296C35.3598 17.9442 35.3598 17.9442 35.4417 17.8572C35.5136 17.7836 35.5854 17.7099 35.6594 17.6341C35.7299 17.5607 35.8004 17.4873 35.873 17.4116C36.1318 17.2055 36.2815 17.1543 36.6101 17.1497C36.8977 17.4062 36.9486 17.5563 37.0387 17.9391C37.0223 18.574 36.9293 19.18 36.7457 19.7887C36.8496 19.7418 36.8496 19.7418 36.9556 19.6939C37.0475 19.6547 37.1394 19.6155 37.2341 19.5751C37.3248 19.5354 37.4154 19.4958 37.5088 19.4549C37.7831 19.3826 37.7831 19.3826 38.0472 19.4227C38.268 19.5517 38.268 19.5517 38.3971 19.7818C38.4776 20.0957 38.5 20.3842 38.5149 20.7076C38.549 21.2202 38.549 21.2202 38.8963 21.5866C39.0432 21.6734 39.0432 21.6734 39.193 21.762C39.393 22.2552 39.3938 22.6913 39.3891 23.2183C39.3943 23.7926 39.3943 23.7926 39.693 24.2465C39.8638 24.3462 40.0349 24.4454 40.2063 24.5442C40.527 24.8501 40.5024 25.1243 40.5368 25.5583C40.5977 26.313 40.7544 26.6493 41.3269 27.1388C41.6115 27.4014 41.798 27.6932 42.0017 28.0209C42.1006 27.901 42.1995 27.7812 42.3014 27.6577C43.6859 25.9963 45.174 24.4619 46.7865 23.021C47.055 22.7796 47.3149 22.5333 47.5724 22.2803C48.5257 21.3645 49.5641 20.5191 50.6446 19.7585C51.051 19.46 51.4303 19.1295 51.8153 18.8041C52.1734 18.5098 52.546 18.2419 52.9235 17.9734C53.2014 17.7682 53.4645 17.5509 53.7281 17.3277C54.0585 17.0479 54.3911 16.785 54.7457 16.5367C56.196 15.494 57.499 14.3231 58.6986 13.0033C59.0484 12.6239 59.4105 12.2565 59.7717 11.888C59.8468 11.8113 59.9218 11.7346 59.9991 11.6556C60.1515 11.4997 60.304 11.3439 60.4566 11.1881C60.8321 10.8044 61.2067 10.4199 61.5814 10.0354C61.7308 9.88216 61.8802 9.72895 62.0296 9.57574C62.1405 9.46197 62.1405 9.46197 62.2537 9.34592C62.4778 9.11609 62.7019 8.88627 62.926 8.65645C63.0001 8.58047 63.0742 8.50449 63.1505 8.42621C63.2985 8.27439 63.4466 8.12258 63.5946 7.97078C63.989 7.56646 64.3831 7.16195 64.777 6.75722C64.9009 6.63 64.9009 6.63 65.0273 6.50021C65.1867 6.33655 65.346 6.17284 65.5052 6.00907C66.0481 5.45165 66.0481 5.45165 66.1986 5.32617Z" fill="white"/>
</svg>
