<svg width="206" height="41" viewBox="0 0 206 41" fill="none" xmlns="http://www.w3.org/2000/svg">
<path d="M52.3158 11.8677C52.271 11.4483 52.0821 11.1217 51.7491 10.8879C51.4193 10.6542 50.9902 10.5373 50.4619 10.5373C50.0905 10.5373 49.7719 10.5933 49.5061 10.7054C49.2403 10.8175 49.037 10.9696 48.8961 11.1617C48.7553 11.3538 48.6832 11.5731 48.68 11.8197C48.68 12.0246 48.7264 12.2023 48.8193 12.3528C48.9154 12.5033 49.045 12.6314 49.2083 12.737C49.3716 12.8395 49.5525 12.9259 49.7511 12.9964C49.9496 13.0668 50.1497 13.1261 50.3514 13.1741L51.2736 13.4046C51.645 13.4911 52.002 13.608 52.3446 13.7552C52.6904 13.9025 52.9994 14.0882 53.2716 14.3124C53.5469 14.5365 53.7647 14.8071 53.9248 15.1241C54.0849 15.4411 54.1649 15.8125 54.1649 16.2383C54.1649 16.8147 54.0176 17.3222 53.723 17.7609C53.4285 18.1963 53.0026 18.5373 52.4455 18.7839C51.8915 19.0272 51.2207 19.1489 50.4331 19.1489C49.6678 19.1489 49.0034 19.0304 48.4399 18.7935C47.8795 18.5565 47.4409 18.2107 47.1239 17.7561C46.8101 17.3014 46.6404 16.7474 46.6148 16.0943H48.3678C48.3934 16.4369 48.4991 16.7218 48.6848 16.9492C48.8705 17.1765 49.1123 17.3462 49.4101 17.4583C49.711 17.5703 50.0472 17.6264 50.4187 17.6264C50.8061 17.6264 51.1455 17.5687 51.4369 17.4535C51.7314 17.335 51.962 17.1717 52.1285 16.9636C52.295 16.7522 52.3798 16.5057 52.383 16.2239C52.3798 15.9678 52.3046 15.7564 52.1573 15.5899C52.01 15.4202 51.8035 15.2794 51.5377 15.1673C51.2752 15.052 50.9678 14.9496 50.6156 14.8599L49.4965 14.5717C48.6864 14.3636 48.046 14.0482 47.5753 13.6256C47.1079 13.1997 46.8741 12.6346 46.8741 11.9301C46.8741 11.3506 47.031 10.8431 47.3448 10.4076C47.6618 9.97217 48.0925 9.63436 48.6368 9.39422C49.1811 9.15087 49.7975 9.0292 50.4859 9.0292C51.1839 9.0292 51.7955 9.15087 52.3206 9.39422C52.8489 9.63436 53.2636 9.96897 53.5646 10.398C53.8655 10.8239 54.0208 11.3138 54.0304 11.8677H52.3158ZM58.9426 19.1441C58.2029 19.1441 57.5642 18.9904 57.0262 18.683C56.4915 18.3724 56.0801 17.9338 55.7919 17.367C55.5037 16.7971 55.3596 16.1263 55.3596 15.3546C55.3596 14.5958 55.5037 13.9297 55.7919 13.3566C56.0833 12.7803 56.4899 12.332 57.0118 12.0118C57.5337 11.6884 58.1469 11.5267 58.8513 11.5267C59.306 11.5267 59.7351 11.6003 60.1385 11.7476C60.5452 11.8917 60.9038 12.1159 61.2144 12.42C61.5281 12.7242 61.7747 13.1117 61.954 13.5823C62.1333 14.0498 62.223 14.607 62.223 15.2537V15.7869H56.1761V14.615H60.5564C60.5532 14.282 60.4811 13.9858 60.3402 13.7264C60.1993 13.4639 60.0024 13.2573 59.7495 13.1069C59.4997 12.9564 59.2083 12.8811 58.8753 12.8811C58.5199 12.8811 58.2077 12.9676 57.9388 13.1405C57.6698 13.3102 57.4601 13.5343 57.3096 13.8129C57.1623 14.0882 57.0871 14.3908 57.0839 14.7206V15.7436C57.0839 16.1727 57.1623 16.5409 57.3192 16.8483C57.4761 17.1525 57.6954 17.3862 57.9772 17.5495C58.259 17.7096 58.5888 17.7897 58.9666 17.7897C59.2196 17.7897 59.4485 17.7545 59.6534 17.684C59.8583 17.6104 60.036 17.5031 60.1865 17.3622C60.337 17.2213 60.4507 17.0468 60.5275 16.8387L62.1509 17.0212C62.0485 17.4503 61.8531 17.8249 61.565 18.1451C61.28 18.4621 60.915 18.7086 60.4699 18.8847C60.0248 19.0576 59.5157 19.1441 58.9426 19.1441ZM66.9022 21.9202C66.2778 21.9202 65.7415 21.8353 65.2932 21.6656C64.8449 21.4991 64.4847 21.275 64.2126 20.9932C63.9404 20.7114 63.7515 20.3992 63.6458 20.0566L65.2116 19.6772C65.282 19.8213 65.3845 19.9638 65.5189 20.1047C65.6534 20.2488 65.8343 20.3672 66.0617 20.4601C66.2922 20.5561 66.582 20.6042 66.931 20.6042C67.4241 20.6042 67.8323 20.4841 68.1557 20.2439C68.4791 20.007 68.6408 19.6164 68.6408 19.072V17.6744H68.5544C68.4647 17.8537 68.3334 18.0378 68.1605 18.2267C67.9908 18.4156 67.7651 18.5741 67.4833 18.7022C67.2048 18.8303 66.8541 18.8943 66.4315 18.8943C65.8648 18.8943 65.3508 18.7615 64.8898 18.4957C64.4319 18.2267 64.0669 17.8265 63.7947 17.295C63.5257 16.7603 63.3913 16.091 63.3913 15.2874C63.3913 14.4773 63.5257 13.7937 63.7947 13.2365C64.0669 12.6762 64.4335 12.2519 64.8946 11.9638C65.3556 11.6724 65.8696 11.5267 66.4363 11.5267C66.8686 11.5267 67.224 11.6003 67.5025 11.7476C67.7843 11.8917 68.0084 12.0662 68.1749 12.2712C68.3414 12.4729 68.4679 12.6634 68.5544 12.8427H68.6504V11.6228H70.3651V19.1201C70.3651 19.7509 70.2146 20.2728 69.9136 20.6858C69.6126 21.0989 69.2012 21.4078 68.6792 21.6128C68.1573 21.8177 67.565 21.9202 66.9022 21.9202ZM66.9166 17.5303C67.2848 17.5303 67.5986 17.4407 67.858 17.2614C68.1173 17.082 68.3142 16.8243 68.4487 16.4881C68.5832 16.1519 68.6504 15.7484 68.6504 15.2778C68.6504 14.8135 68.5832 14.4068 68.4487 14.0578C68.3174 13.7088 68.1221 13.4383 67.8628 13.2461C67.6066 13.0508 67.2912 12.9532 66.9166 12.9532C66.5292 12.9532 66.2058 13.054 65.9464 13.2557C65.687 13.4575 65.4917 13.7344 65.3604 14.0866C65.2292 14.4357 65.1635 14.8327 65.1635 15.2778C65.1635 15.7292 65.2292 16.1247 65.3604 16.4641C65.4949 16.8003 65.6918 17.0628 65.9512 17.2517C66.2138 17.4375 66.5356 17.5303 66.9166 17.5303ZM76.849 15.8973V11.6228H78.5876V19H76.9018V17.6888H76.8249C76.6584 18.1019 76.3847 18.4397 76.0037 18.7022C75.6258 18.9648 75.1599 19.0961 74.606 19.0961C74.1225 19.0961 73.6951 18.9888 73.3236 18.7743C72.9554 18.5565 72.6672 18.2411 72.4591 17.8281C72.251 17.4118 72.1469 16.9091 72.1469 16.32V11.6228H73.8856V16.051C73.8856 16.5185 74.0137 16.8899 74.2698 17.1653C74.526 17.4407 74.8622 17.5783 75.2784 17.5783C75.5346 17.5783 75.7827 17.5159 76.0229 17.391C76.263 17.2662 76.4599 17.0804 76.6136 16.8339C76.7705 16.5841 76.849 16.272 76.849 15.8973ZM80.3755 19V11.6228H82.1141V19H80.3755ZM81.2496 10.5757C80.9742 10.5757 80.7373 10.4845 80.5388 10.302C80.3403 10.1163 80.241 9.89372 80.241 9.63436C80.241 9.37181 80.3403 9.14927 80.5388 8.96676C80.7373 8.78105 80.9742 8.6882 81.2496 8.6882C81.5282 8.6882 81.7651 8.78105 81.9604 8.96676C82.159 9.14927 82.2582 9.37181 82.2582 9.63436C82.2582 9.89372 82.159 10.1163 81.9604 10.302C81.7651 10.4845 81.5282 10.5757 81.2496 10.5757ZM83.902 19V11.6228H85.5638V12.8763H85.6503C85.8039 12.4537 86.0585 12.1239 86.4139 11.8869C86.7693 11.6468 87.1936 11.5267 87.6867 11.5267C88.1862 11.5267 88.6072 11.6484 88.9498 11.8917C89.2956 12.1319 89.539 12.4601 89.6799 12.8763H89.7567C89.92 12.4665 90.1954 12.1399 90.5828 11.8965C90.9735 11.65 91.4361 11.5267 91.9709 11.5267C92.6497 11.5267 93.2036 11.7412 93.6327 12.1703C94.0617 12.5993 94.2762 13.2253 94.2762 14.0482V19H92.5328V14.3172C92.5328 13.8593 92.4111 13.5247 92.1678 13.3134C91.9244 13.0988 91.6267 12.9916 91.2744 12.9916C90.855 12.9916 90.5268 13.1229 90.2898 13.3854C90.0561 13.6448 89.9392 13.9826 89.9392 14.3988V19H88.2342V14.2451C88.2342 13.8641 88.1189 13.5599 87.8884 13.3326C87.6611 13.1053 87.3633 12.9916 86.9951 12.9916C86.7453 12.9916 86.518 13.0556 86.3131 13.1837C86.1081 13.3086 85.9448 13.4863 85.8232 13.7168C85.7015 13.9442 85.6407 14.2099 85.6407 14.5141V19H83.902ZM99.3061 19.1441C98.5664 19.1441 97.9276 18.9904 97.3897 18.683C96.855 18.3724 96.4436 17.9338 96.1554 17.367C95.8672 16.7971 95.7231 16.1263 95.7231 15.3546C95.7231 14.5958 95.8672 13.9297 96.1554 13.3566C96.4468 12.7803 96.8534 12.332 97.3753 12.0118C97.8972 11.6884 98.5104 11.5267 99.2148 11.5267C99.6695 11.5267 100.099 11.6003 100.502 11.7476C100.909 11.8917 101.267 12.1159 101.578 12.42C101.892 12.7242 102.138 13.1117 102.317 13.5823C102.497 14.0498 102.586 14.607 102.586 15.2537V15.7869H96.5396V14.615H100.92C100.917 14.282 100.845 13.9858 100.704 13.7264C100.563 13.4639 100.366 13.2573 100.113 13.1069C99.8632 12.9564 99.5718 12.8811 99.2388 12.8811C98.8834 12.8811 98.5712 12.9676 98.3023 13.1405C98.0333 13.3102 97.8236 13.5343 97.6731 13.8129C97.5258 14.0882 97.4506 14.3908 97.4474 14.7206V15.7436C97.4474 16.1727 97.5258 16.5409 97.6827 16.8483C97.8396 17.1525 98.0589 17.3862 98.3407 17.5495C98.6225 17.7096 98.9523 17.7897 99.3301 17.7897C99.583 17.7897 99.812 17.7545 100.017 17.684C100.222 17.6104 100.4 17.5031 100.55 17.3622C100.701 17.2213 100.814 17.0468 100.891 16.8387L102.514 17.0212C102.412 17.4503 102.217 17.8249 101.928 18.1451C101.643 18.4621 101.278 18.7086 100.833 18.8847C100.388 19.0576 99.8792 19.1441 99.3061 19.1441ZM105.796 14.6774V19H104.057V11.6228H105.719V12.8763H105.806C105.975 12.4633 106.246 12.1351 106.617 11.8917C106.992 11.6484 107.455 11.5267 108.005 11.5267C108.514 11.5267 108.958 11.6356 109.336 11.8533C109.717 12.071 110.011 12.3864 110.219 12.7995C110.431 13.2125 110.535 13.7136 110.532 14.3028V19H108.793V14.5717C108.793 14.0786 108.665 13.6928 108.409 13.4142C108.156 13.1357 107.805 12.9964 107.357 12.9964C107.053 12.9964 106.782 13.0636 106.545 13.1981C106.311 13.3294 106.127 13.5199 105.993 13.7697C105.862 14.0194 105.796 14.322 105.796 14.6774ZM115.983 11.6228V12.9676H111.742V11.6228H115.983ZM112.789 9.8553H114.528V16.7811C114.528 17.0148 114.563 17.1941 114.633 17.319C114.707 17.4407 114.803 17.5239 114.921 17.5687C115.04 17.6136 115.171 17.636 115.315 17.636C115.424 17.636 115.523 17.628 115.613 17.612C115.706 17.596 115.776 17.5815 115.824 17.5687L116.117 18.928C116.025 18.96 115.892 18.9952 115.719 19.0336C115.549 19.072 115.341 19.0945 115.094 19.1009C114.659 19.1137 114.267 19.048 113.918 18.9039C113.569 18.7567 113.292 18.5293 113.087 18.2219C112.885 17.9145 112.786 17.5303 112.789 17.0692V9.8553ZM123.529 19.1297C122.95 19.1297 122.431 18.9808 121.973 18.683C121.515 18.3852 121.154 17.953 120.888 17.3862C120.622 16.8195 120.489 16.1311 120.489 15.321C120.489 14.5013 120.624 13.8097 120.893 13.2461C121.165 12.6794 121.531 12.2519 121.993 11.9638C122.454 11.6724 122.968 11.5267 123.534 11.5267C123.967 11.5267 124.322 11.6003 124.6 11.7476C124.879 11.8917 125.1 12.0662 125.263 12.2712C125.427 12.4729 125.553 12.6634 125.643 12.8427H125.715V9.16368H127.458V19H125.748V17.8377H125.643C125.553 18.017 125.423 18.2075 125.254 18.4092C125.084 18.6078 124.86 18.7775 124.581 18.9184C124.303 19.0592 123.952 19.1297 123.529 19.1297ZM124.015 17.7032C124.383 17.7032 124.697 17.604 124.956 17.4054C125.215 17.2037 125.412 16.9236 125.547 16.5649C125.681 16.2063 125.748 15.7885 125.748 15.3114C125.748 14.8343 125.681 14.4196 125.547 14.0674C125.415 13.7152 125.22 13.4415 124.961 13.2461C124.705 13.0508 124.389 12.9532 124.015 12.9532C123.627 12.9532 123.304 13.054 123.044 13.2557C122.785 13.4575 122.59 13.736 122.458 14.0914C122.327 14.4469 122.261 14.8535 122.261 15.3114C122.261 15.7725 122.327 16.1839 122.458 16.5457C122.593 16.9043 122.79 17.1877 123.049 17.3958C123.312 17.6008 123.634 17.7032 124.015 17.7032ZM130.785 9.16368V10.1435C130.785 10.4252 130.731 10.7182 130.622 11.0224C130.516 11.3234 130.371 11.6116 130.185 11.8869C129.999 12.1591 129.788 12.3928 129.551 12.5881L128.744 12.0646C128.92 11.7989 129.074 11.5123 129.205 11.2049C129.337 10.8943 129.402 10.5437 129.402 10.1531V9.16368H130.785ZM134.576 19.1441C133.856 19.1441 133.231 18.9856 132.703 18.6686C132.175 18.3516 131.765 17.9081 131.473 17.3382C131.185 16.7683 131.041 16.1023 131.041 15.3402C131.041 14.5781 131.185 13.9105 131.473 13.3374C131.765 12.7642 132.175 12.3192 132.703 12.0022C133.231 11.6852 133.856 11.5267 134.576 11.5267C135.297 11.5267 135.921 11.6852 136.449 12.0022C136.978 12.3192 137.386 12.7642 137.674 13.3374C137.965 13.9105 138.111 14.5781 138.111 15.3402C138.111 16.1023 137.965 16.7683 137.674 17.3382C137.386 17.9081 136.978 18.3516 136.449 18.6686C135.921 18.9856 135.297 19.1441 134.576 19.1441ZM134.586 17.7512C134.976 17.7512 135.303 17.644 135.565 17.4295C135.828 17.2117 136.023 16.9203 136.151 16.5553C136.283 16.1903 136.348 15.7837 136.348 15.3354C136.348 14.8839 136.283 14.4757 136.151 14.1107C136.023 13.7424 135.828 13.4495 135.565 13.2317C135.303 13.014 134.976 12.9051 134.586 12.9051C134.185 12.9051 133.852 13.014 133.587 13.2317C133.324 13.4495 133.127 13.7424 132.996 14.1107C132.868 14.4757 132.804 14.8839 132.804 15.3354C132.804 15.7837 132.868 16.1903 132.996 16.5553C133.127 16.9203 133.324 17.2117 133.587 17.4295C133.852 17.644 134.185 17.7512 134.586 17.7512ZM142.805 19.1441C142.068 19.1441 141.436 18.9824 140.908 18.659C140.382 18.3356 139.977 17.8889 139.692 17.319C139.411 16.7458 139.27 16.0862 139.27 15.3402C139.27 14.5909 139.414 13.9297 139.702 13.3566C139.99 12.7803 140.397 12.332 140.922 12.0118C141.45 11.6884 142.075 11.5267 142.795 11.5267C143.394 11.5267 143.924 11.6372 144.385 11.8581C144.849 12.0758 145.219 12.3848 145.494 12.7851C145.77 13.1821 145.927 13.6464 145.965 14.1779H144.303C144.236 13.8225 144.076 13.5263 143.823 13.2894C143.573 13.0492 143.239 12.9291 142.819 12.9291C142.464 12.9291 142.151 13.0252 141.882 13.2173C141.614 13.4062 141.404 13.6784 141.253 14.0338C141.106 14.3892 141.032 14.8151 141.032 15.3114C141.032 15.8141 141.106 16.2463 141.253 16.6082C141.401 16.9668 141.607 17.2437 141.873 17.4391C142.142 17.6312 142.457 17.7272 142.819 17.7272C143.075 17.7272 143.304 17.6792 143.506 17.5831C143.711 17.4839 143.882 17.3414 144.02 17.1557C144.157 16.97 144.252 16.7442 144.303 16.4785H145.965C145.923 17.0004 145.77 17.4631 145.504 17.8665C145.238 18.2668 144.876 18.5805 144.418 18.8079C143.961 19.032 143.423 19.1441 142.805 19.1441ZM150.659 19.1441C149.919 19.1441 149.28 18.9904 148.742 18.683C148.207 18.3724 147.796 17.9338 147.508 17.367C147.22 16.7971 147.076 16.1263 147.076 15.3546C147.076 14.5958 147.22 13.9297 147.508 13.3566C147.799 12.7803 148.206 12.332 148.728 12.0118C149.25 11.6884 149.863 11.5267 150.567 11.5267C151.022 11.5267 151.451 11.6003 151.854 11.7476C152.261 11.8917 152.62 12.1159 152.93 12.42C153.244 12.7242 153.491 13.1117 153.67 13.5823C153.849 14.0498 153.939 14.607 153.939 15.2537V15.7869H147.892V14.615H152.272C152.269 14.282 152.197 13.9858 152.056 13.7264C151.915 13.4639 151.718 13.2573 151.465 13.1069C151.216 12.9564 150.924 12.8811 150.591 12.8811C150.236 12.8811 149.924 12.9676 149.655 13.1405C149.386 13.3102 149.176 13.5343 149.026 13.8129C148.878 14.0882 148.803 14.3908 148.8 14.7206V15.7436C148.8 16.1727 148.878 16.5409 149.035 16.8483C149.192 17.1525 149.411 17.3862 149.693 17.5495C149.975 17.7096 150.305 17.7897 150.683 17.7897C150.936 17.7897 151.164 17.7545 151.369 17.684C151.574 17.6104 151.752 17.5031 151.903 17.3622C152.053 17.2213 152.167 17.0468 152.244 16.8387L153.867 17.0212C153.764 17.4503 153.569 17.8249 153.281 18.1451C152.996 18.4621 152.631 18.7086 152.186 18.8847C151.741 19.0576 151.232 19.1441 150.659 19.1441ZM157.148 9.16368V19H155.41V9.16368H157.148ZM160.675 9.16368V19H158.936V9.16368H160.675ZM168.294 13.5727L166.709 13.7456C166.664 13.5855 166.585 13.4351 166.473 13.2942C166.364 13.1533 166.217 13.0396 166.031 12.9532C165.846 12.8667 165.618 12.8235 165.349 12.8235C164.988 12.8235 164.683 12.9019 164.437 13.0588C164.194 13.2157 164.073 13.419 164.077 13.6688C164.073 13.8833 164.152 14.0578 164.312 14.1923C164.475 14.3268 164.744 14.4373 165.119 14.5237L166.377 14.7927C167.075 14.9432 167.594 15.1817 167.933 15.5083C168.276 15.8349 168.449 16.2624 168.452 16.7907C168.449 17.2549 168.313 17.6648 168.044 18.0202C167.778 18.3724 167.408 18.6478 166.934 18.8463C166.46 19.0448 165.916 19.1441 165.301 19.1441C164.398 19.1441 163.672 18.9552 163.121 18.5773C162.57 18.1963 162.242 17.6664 162.136 16.9876L163.832 16.8243C163.909 17.1573 164.072 17.4086 164.322 17.5783C164.571 17.748 164.896 17.8329 165.297 17.8329C165.71 17.8329 166.041 17.748 166.291 17.5783C166.544 17.4086 166.67 17.1989 166.67 16.9492C166.67 16.7378 166.589 16.5633 166.425 16.4257C166.265 16.288 166.015 16.1823 165.676 16.1087L164.418 15.8445C163.71 15.6972 163.187 15.4491 162.847 15.1001C162.508 14.7478 162.34 14.3028 162.343 13.7648C162.34 13.3102 162.463 12.9163 162.713 12.5833C162.966 12.2471 163.316 11.9878 163.764 11.8053C164.216 11.6196 164.736 11.5267 165.325 11.5267C166.19 11.5267 166.87 11.7108 167.367 12.079C167.866 12.4473 168.175 12.9452 168.294 13.5727ZM173.241 19V11.6228H174.926V12.8523H175.003C175.138 12.4264 175.368 12.0982 175.695 11.8677C176.025 11.634 176.401 11.5171 176.824 11.5171C176.92 11.5171 177.027 11.5219 177.145 11.5315C177.267 11.5379 177.368 11.5491 177.448 11.5651V13.1645C177.374 13.1389 177.257 13.1165 177.097 13.0972C176.94 13.0748 176.788 13.0636 176.641 13.0636C176.324 13.0636 176.039 13.1325 175.786 13.2702C175.536 13.4046 175.339 13.5919 175.195 13.8321C175.051 14.0722 174.979 14.3492 174.979 14.663V19H173.241ZM180.594 19.1489C180.126 19.1489 179.705 19.0656 179.331 18.8991C178.959 18.7294 178.665 18.4797 178.447 18.1499C178.232 17.8201 178.125 17.4134 178.125 16.93C178.125 16.5137 178.202 16.1695 178.356 15.8973C178.509 15.6252 178.719 15.4074 178.985 15.2441C179.251 15.0808 179.55 14.9576 179.883 14.8743C180.219 14.7879 180.567 14.7254 180.925 14.687C181.357 14.6422 181.708 14.6022 181.977 14.5669C182.246 14.5285 182.441 14.4709 182.563 14.394C182.688 14.314 182.75 14.1907 182.75 14.0242V13.9954C182.75 13.6336 182.643 13.3534 182.428 13.1549C182.214 12.9564 181.905 12.8571 181.502 12.8571C181.076 12.8571 180.738 12.95 180.488 13.1357C180.242 13.3214 180.075 13.5407 179.989 13.7937L178.365 13.5631C178.493 13.1149 178.705 12.7402 178.999 12.4393C179.294 12.1351 179.654 11.9077 180.08 11.7572C180.506 11.6035 180.976 11.5267 181.492 11.5267C181.847 11.5267 182.201 11.5683 182.553 11.6516C182.906 11.7348 183.227 11.8725 183.519 12.0646C183.81 12.2535 184.044 12.5113 184.22 12.8379C184.399 13.1645 184.489 13.5727 184.489 14.0626V19H182.818V17.9866H182.76C182.654 18.1915 182.505 18.3836 182.313 18.5629C182.124 18.739 181.886 18.8815 181.598 18.9904C181.313 19.0961 180.978 19.1489 180.594 19.1489ZM181.045 17.8713C181.394 17.8713 181.697 17.8025 181.953 17.6648C182.209 17.5239 182.406 17.3382 182.544 17.1077C182.685 16.8771 182.755 16.6258 182.755 16.3536V15.4843C182.701 15.5291 182.608 15.5707 182.477 15.6092C182.348 15.6476 182.204 15.6812 182.044 15.71C181.884 15.7388 181.726 15.7645 181.569 15.7869C181.412 15.8093 181.276 15.8285 181.161 15.8445C180.901 15.8797 180.669 15.9374 180.464 16.0174C180.259 16.0975 180.097 16.2095 179.979 16.3536C179.861 16.4945 179.801 16.677 179.801 16.9011C179.801 17.2213 179.918 17.4631 180.152 17.6264C180.386 17.7897 180.683 17.8713 181.045 17.8713ZM186.237 19V11.6228H187.923V12.8523H188C188.134 12.4264 188.365 12.0982 188.691 11.8677C189.021 11.634 189.397 11.5171 189.82 11.5171C189.916 11.5171 190.023 11.5219 190.142 11.5315C190.264 11.5379 190.364 11.5491 190.445 11.5651V13.1645C190.371 13.1389 190.254 13.1165 190.094 13.0972C189.937 13.0748 189.785 13.0636 189.638 13.0636C189.321 13.0636 189.036 13.1325 188.783 13.2702C188.533 13.4046 188.336 13.5919 188.192 13.8321C188.048 14.0722 187.976 14.3492 187.976 14.663V19H186.237ZM197.43 13.5727L195.845 13.7456C195.801 13.5855 195.722 13.4351 195.61 13.2942C195.501 13.1533 195.354 13.0396 195.168 12.9532C194.982 12.8667 194.755 12.8235 194.486 12.8235C194.124 12.8235 193.82 12.9019 193.574 13.0588C193.33 13.2157 193.21 13.419 193.213 13.6688C193.21 13.8833 193.289 14.0578 193.449 14.1923C193.612 14.3268 193.881 14.4373 194.256 14.5237L195.514 14.7927C196.212 14.9432 196.731 15.1817 197.07 15.5083C197.413 15.8349 197.586 16.2624 197.589 16.7907C197.586 17.2549 197.45 17.6648 197.181 18.0202C196.915 18.3724 196.545 18.6478 196.071 18.8463C195.597 19.0448 195.053 19.1441 194.438 19.1441C193.535 19.1441 192.808 18.9552 192.258 18.5773C191.707 18.1963 191.379 17.6664 191.273 16.9876L192.968 16.8243C193.045 17.1573 193.209 17.4086 193.458 17.5783C193.708 17.748 194.033 17.8329 194.433 17.8329C194.846 17.8329 195.178 17.748 195.428 17.5783C195.68 17.4086 195.807 17.1989 195.807 16.9492C195.807 16.7378 195.725 16.5633 195.562 16.4257C195.402 16.288 195.152 16.1823 194.813 16.1087L193.554 15.8445C192.847 15.6972 192.323 15.4491 191.984 15.1001C191.644 14.7478 191.476 14.3028 191.48 13.7648C191.476 13.3102 191.6 12.9163 191.849 12.5833C192.102 12.2471 192.453 11.9878 192.901 11.8053C193.353 11.6196 193.873 11.5267 194.462 11.5267C195.327 11.5267 196.007 11.7108 196.503 12.079C197.003 12.4473 197.312 12.9452 197.43 13.5727ZM49.631 35.1297C49.0514 35.1297 48.5327 34.9808 48.0748 34.683C47.617 34.3852 47.2552 33.953 46.9894 33.3862C46.7236 32.8195 46.5908 32.1311 46.5908 31.321C46.5908 30.5013 46.7252 29.8097 46.9942 29.2461C47.2664 28.6794 47.633 28.2519 48.0941 27.9638C48.5551 27.6724 49.069 27.5267 49.6358 27.5267C50.068 27.5267 50.4235 27.6003 50.702 27.7476C50.9806 27.8917 51.2015 28.0662 51.3648 28.2712C51.5281 28.4729 51.6546 28.6634 51.7443 28.8427H51.8163V25.1637H53.5597V35H51.8499V33.8377H51.7443C51.6546 34.017 51.5249 34.2075 51.3552 34.4092C51.1855 34.6078 50.9614 34.7775 50.6828 34.9184C50.4042 35.0592 50.0536 35.1297 49.631 35.1297ZM50.1161 33.7032C50.4843 33.7032 50.7981 33.604 51.0574 33.4054C51.3168 33.2037 51.5137 32.9236 51.6482 32.5649C51.7827 32.2063 51.8499 31.7885 51.8499 31.3114C51.8499 30.8343 51.7827 30.4196 51.6482 30.0674C51.5169 29.7152 51.3216 29.4415 51.0622 29.2461C50.8061 29.0508 50.4907 28.9532 50.1161 28.9532C49.7286 28.9532 49.4052 29.054 49.1459 29.2557C48.8865 29.4575 48.6912 29.736 48.5599 30.0914C48.4287 30.4469 48.363 30.8535 48.363 31.3114C48.363 31.7725 48.4287 32.1839 48.5599 32.5457C48.6944 32.9043 48.8913 33.1877 49.1507 33.3958C49.4133 33.6008 49.735 33.7032 50.1161 33.7032ZM58.6784 35.1441C57.9388 35.1441 57.3 34.9904 56.7621 34.683C56.2274 34.3724 55.8159 33.9338 55.5277 33.367C55.2396 32.7971 55.0955 32.1263 55.0955 31.3546C55.0955 30.5958 55.2396 29.9297 55.5277 29.3566C55.8191 28.7803 56.2258 28.332 56.7477 28.0118C57.2696 27.6884 57.8827 27.5267 58.5872 27.5267C59.0418 27.5267 59.4709 27.6003 59.8743 27.7476C60.281 27.8917 60.6396 28.1159 60.9502 28.42C61.264 28.7242 61.5105 29.1117 61.6898 29.5823C61.8691 30.0498 61.9588 30.607 61.9588 31.2537V31.7869H55.912V30.615H60.2922C60.289 30.282 60.217 29.9858 60.0761 29.7264C59.9352 29.4639 59.7383 29.2573 59.4853 29.1069C59.2356 28.9564 58.9442 28.8811 58.6112 28.8811C58.2558 28.8811 57.9436 28.9676 57.6746 29.1405C57.4057 29.3102 57.1959 29.5343 57.0454 29.8129C56.8982 30.0882 56.8229 30.3908 56.8197 30.7206V31.7436C56.8197 32.1727 56.8982 32.5409 57.0551 32.8483C57.2119 33.1525 57.4313 33.3862 57.713 33.5495C57.9948 33.7096 58.3246 33.7897 58.7024 33.7897C58.9554 33.7897 59.1843 33.7545 59.3893 33.684C59.5942 33.6104 59.7719 33.5031 59.9224 33.3622C60.0729 33.2213 60.1865 33.0468 60.2634 32.8387L61.8868 33.0212C61.7843 33.4503 61.589 33.8249 61.3008 34.1451C61.0158 34.4621 60.6508 34.7086 60.2057 34.8847C59.7607 35.0576 59.2516 35.1441 58.6784 35.1441ZM75.2808 28.4825H73.4845C73.4333 28.1879 73.3389 27.9269 73.2012 27.6996C73.0635 27.4691 72.8922 27.2738 72.6873 27.1137C72.4823 26.9536 72.2486 26.8335 71.986 26.7534C71.7267 26.6702 71.4465 26.6286 71.1455 26.6286C70.6108 26.6286 70.1369 26.763 69.7239 27.032C69.3108 27.2978 68.9874 27.6884 68.7537 28.2039C68.52 28.7162 68.4031 29.3422 68.4031 30.0818C68.4031 30.8343 68.52 31.4683 68.7537 31.9838C68.9906 32.4961 69.314 32.8835 69.7239 33.1461C70.1369 33.4054 70.6092 33.5351 71.1407 33.5351C71.4353 33.5351 71.7107 33.4967 71.9668 33.4198C72.2262 33.3398 72.4583 33.2229 72.6632 33.0692C72.8714 32.9155 73.0459 32.7266 73.1868 32.5025C73.3308 32.2784 73.4301 32.0222 73.4845 31.734L75.2808 31.7436C75.2136 32.2111 75.0679 32.6498 74.8438 33.0596C74.6228 33.4695 74.333 33.8313 73.9744 34.1451C73.6158 34.4557 73.1964 34.699 72.7161 34.8751C72.2358 35.048 71.7027 35.1345 71.1167 35.1345C70.2522 35.1345 69.4805 34.9344 68.8017 34.5341C68.1229 34.1339 67.5882 33.5559 67.1976 32.8003C66.8069 32.0446 66.6116 31.1385 66.6116 30.0818C66.6116 29.022 66.8085 28.1159 67.2024 27.3634C67.5962 26.6078 68.1325 26.0298 68.8113 25.6296C69.4901 25.2293 70.2586 25.0292 71.1167 25.0292C71.6642 25.0292 72.1733 25.106 72.644 25.2597C73.1147 25.4134 73.5342 25.6392 73.9024 25.9369C74.2706 26.2315 74.5732 26.5933 74.8101 27.0224C75.0503 27.4483 75.2072 27.9349 75.2808 28.4825ZM78.9586 35.1489C78.4911 35.1489 78.0701 35.0656 77.6955 34.8991C77.324 34.7294 77.0295 34.4797 76.8117 34.1499C76.5972 33.8201 76.4899 33.4134 76.4899 32.93C76.4899 32.5137 76.5668 32.1695 76.7205 31.8973C76.8742 31.6252 77.0839 31.4074 77.3497 31.2441C77.6154 31.0808 77.9148 30.9576 78.2478 30.8743C78.584 30.7879 78.9314 30.7254 79.29 30.687C79.7223 30.6422 80.0729 30.6022 80.3419 30.5669C80.6108 30.5285 80.8061 30.4709 80.9278 30.394C81.0527 30.314 81.1151 30.1907 81.1151 30.0242V29.9954C81.1151 29.6336 81.0079 29.3534 80.7933 29.1549C80.5788 28.9564 80.2698 28.8571 79.8664 28.8571C79.4405 28.8571 79.1027 28.95 78.853 29.1357C78.6064 29.3214 78.4399 29.5407 78.3535 29.7937L76.7301 29.5631C76.8582 29.1149 77.0695 28.7402 77.3641 28.4393C77.6586 28.1351 78.0189 27.9077 78.4447 27.7572C78.8706 27.6035 79.3413 27.5267 79.8568 27.5267C80.2122 27.5267 80.566 27.5683 80.9182 27.6516C81.2704 27.7348 81.5922 27.8725 81.8836 28.0646C82.175 28.2535 82.4087 28.5113 82.5848 28.8379C82.7641 29.1645 82.8538 29.5727 82.8538 30.0626V35H81.1824V33.9866H81.1247C81.0191 34.1915 80.8702 34.3836 80.6781 34.5629C80.4892 34.739 80.2506 34.8815 79.9624 34.9904C79.6775 35.0961 79.3429 35.1489 78.9586 35.1489ZM79.4101 33.8713C79.7591 33.8713 80.0617 33.8025 80.3178 33.6648C80.574 33.5239 80.7709 33.3382 80.9086 33.1077C81.0495 32.8771 81.1199 32.6258 81.1199 32.3536V31.4843C81.0655 31.5291 80.9726 31.5707 80.8414 31.6092C80.7133 31.6476 80.5692 31.6812 80.4091 31.71C80.249 31.7388 80.0905 31.7645 79.9336 31.7869C79.7767 31.8093 79.6406 31.8285 79.5254 31.8445C79.266 31.8797 79.0339 31.9374 78.829 32.0174C78.624 32.0975 78.4623 32.2095 78.3439 32.3536C78.2254 32.4945 78.1662 32.677 78.1662 32.9011C78.1662 33.2213 78.283 33.4631 78.5168 33.6264C78.7505 33.7897 79.0483 33.8713 79.4101 33.8713ZM88.2858 27.6228V28.9676H84.0449V27.6228H88.2858ZM85.0919 25.8553H86.8306V32.7811C86.8306 33.0148 86.8658 33.1941 86.9362 33.319C87.0099 33.4407 87.1059 33.5239 87.2244 33.5687C87.3429 33.6136 87.4742 33.636 87.6182 33.636C87.7271 33.636 87.8264 33.628 87.916 33.612C88.0089 33.596 88.0793 33.5815 88.1273 33.5687L88.4203 34.928C88.3275 34.96 88.1946 34.9952 88.0217 35.0336C87.852 35.072 87.6439 35.0945 87.3973 35.1009C86.9618 35.1137 86.5696 35.048 86.2206 34.9039C85.8716 34.7567 85.5946 34.5293 85.3897 34.2219C85.188 33.9145 85.0887 33.5303 85.0919 33.0692V25.8553ZM91.8628 35.1489C91.3953 35.1489 90.9743 35.0656 90.5996 34.8991C90.2282 34.7294 89.9336 34.4797 89.7159 34.1499C89.5014 33.8201 89.3941 33.4134 89.3941 32.93C89.3941 32.5137 89.471 32.1695 89.6246 31.8973C89.7783 31.6252 89.9881 31.4074 90.2538 31.2441C90.5196 31.0808 90.819 30.9576 91.152 30.8743C91.4882 30.7879 91.8356 30.7254 92.1942 30.687C92.6265 30.6422 92.9771 30.6022 93.246 30.5669C93.515 30.5285 93.7103 30.4709 93.832 30.394C93.9569 30.314 94.0193 30.1907 94.0193 30.0242V29.9954C94.0193 29.6336 93.912 29.3534 93.6975 29.1549C93.483 28.9564 93.174 28.8571 92.7705 28.8571C92.3447 28.8571 92.0069 28.95 91.7571 29.1357C91.5106 29.3214 91.3441 29.5407 91.2576 29.7937L89.6343 29.5631C89.7623 29.1149 89.9737 28.7402 90.2682 28.4393C90.5628 28.1351 90.923 27.9077 91.3489 27.7572C91.7747 27.6035 92.2454 27.5267 92.7609 27.5267C93.1163 27.5267 93.4702 27.5683 93.8224 27.6516C94.1746 27.7348 94.4964 27.8725 94.7878 28.0646C95.0791 28.2535 95.3129 28.5113 95.489 28.8379C95.6683 29.1645 95.7579 29.5727 95.7579 30.0626V35H94.0865V33.9866H94.0289C93.9232 34.1915 93.7743 34.3836 93.5822 34.5629C93.3933 34.739 93.1548 34.8815 92.8666 34.9904C92.5816 35.0961 92.247 35.1489 91.8628 35.1489ZM92.3143 33.8713C92.6633 33.8713 92.9659 33.8025 93.222 33.6648C93.4782 33.5239 93.6751 33.3382 93.8128 33.1077C93.9537 32.8771 94.0241 32.6258 94.0241 32.3536V31.4843C93.9697 31.5291 93.8768 31.5707 93.7455 31.6092C93.6175 31.6476 93.4734 31.6812 93.3133 31.71C93.1532 31.7388 92.9947 31.7645 92.8378 31.7869C92.6809 31.8093 92.5448 31.8285 92.4295 31.8445C92.1702 31.8797 91.938 31.9374 91.7331 32.0174C91.5282 32.0975 91.3665 32.2095 91.248 32.3536C91.1296 32.4945 91.0703 32.677 91.0703 32.9011C91.0703 33.2213 91.1872 33.4631 91.4209 33.6264C91.6547 33.7897 91.9524 33.8713 92.3143 33.8713ZM99.2448 25.1637V35H97.5062V25.1637H99.2448ZM105.735 31.8973V27.6228H107.473V35H105.788V33.6888H105.711C105.544 34.1019 105.27 34.4397 104.889 34.7022C104.512 34.9648 104.046 35.0961 103.492 35.0961C103.008 35.0961 102.581 34.9888 102.209 34.7743C101.841 34.5565 101.553 34.2411 101.345 33.8281C101.137 33.4118 101.033 32.9091 101.033 32.32V27.6228H102.771V32.051C102.771 32.5185 102.899 32.8899 103.156 33.1653C103.412 33.4407 103.748 33.5783 104.164 33.5783C104.42 33.5783 104.668 33.5159 104.909 33.391C105.149 33.2662 105.346 33.0804 105.499 32.8339C105.656 32.5841 105.735 32.272 105.735 31.8973ZM111 30.6774V35H109.261V27.6228H110.923V28.8763H111.01C111.179 28.4633 111.45 28.1351 111.821 27.8917C112.196 27.6484 112.659 27.5267 113.209 27.5267C113.718 27.5267 114.162 27.6356 114.54 27.8533C114.921 28.071 115.215 28.3864 115.423 28.7995C115.635 29.2125 115.739 29.7136 115.736 30.3028V35H113.997V30.5717C113.997 30.0786 113.869 29.6928 113.613 29.4142C113.36 29.1357 113.009 28.9964 112.561 28.9964C112.257 28.9964 111.986 29.0636 111.749 29.1981C111.515 29.3294 111.331 29.5199 111.197 29.7697C111.066 30.0194 111 30.322 111 30.6774ZM118.32 37.7665C118.083 37.7665 117.863 37.7473 117.662 37.7088C117.463 37.6736 117.305 37.632 117.186 37.584L117.589 36.2295C117.842 36.3032 118.068 36.3384 118.267 36.3352C118.465 36.332 118.64 36.2696 118.79 36.1479C118.944 36.0294 119.074 35.8309 119.179 35.5523L119.328 35.1537L116.653 27.6228H118.497L120.197 33.1941H120.274L121.979 27.6228H123.828L120.875 35.8933C120.737 36.284 120.554 36.6186 120.327 36.8971C120.1 37.1789 119.821 37.3934 119.491 37.5407C119.165 37.6912 118.774 37.7665 118.32 37.7665ZM126.943 35.1489C126.476 35.1489 126.055 35.0656 125.68 34.8991C125.309 34.7294 125.014 34.4797 124.796 34.1499C124.582 33.8201 124.474 33.4134 124.474 32.93C124.474 32.5137 124.551 32.1695 124.705 31.8973C124.859 31.6252 125.068 31.4074 125.334 31.2441C125.6 31.0808 125.899 30.9576 126.232 30.8743C126.568 30.7879 126.916 30.7254 127.275 30.687C127.707 30.6422 128.057 30.6022 128.326 30.5669C128.595 30.5285 128.791 30.4709 128.912 30.394C129.037 30.314 129.1 30.1907 129.1 30.0242V29.9954C129.1 29.6336 128.992 29.3534 128.778 29.1549C128.563 28.9564 128.254 28.8571 127.851 28.8571C127.425 28.8571 127.087 28.95 126.837 29.1357C126.591 29.3214 126.424 29.5407 126.338 29.7937L124.715 29.5631C124.843 29.1149 125.054 28.7402 125.349 28.4393C125.643 28.1351 126.003 27.9077 126.429 27.7572C126.855 27.6035 127.326 27.5267 127.841 27.5267C128.197 27.5267 128.55 27.5683 128.903 27.6516C129.255 27.7348 129.577 27.8725 129.868 28.0646C130.159 28.2535 130.393 28.5113 130.569 28.8379C130.749 29.1645 130.838 29.5727 130.838 30.0626V35H129.167V33.9866H129.109C129.004 34.1915 128.855 34.3836 128.663 34.5629C128.474 34.739 128.235 34.8815 127.947 34.9904C127.662 35.0961 127.327 35.1489 126.943 35.1489ZM127.395 33.8713C127.744 33.8713 128.046 33.8025 128.302 33.6648C128.558 33.5239 128.755 33.3382 128.893 33.1077C129.034 32.8771 129.104 32.6258 129.104 32.3536V31.4843C129.05 31.5291 128.957 31.5707 128.826 31.6092C128.698 31.6476 128.554 31.6812 128.394 31.71C128.233 31.7388 128.075 31.7645 127.918 31.7869C127.761 31.8093 127.625 31.8285 127.51 31.8445C127.25 31.8797 127.018 31.9374 126.813 32.0174C126.609 32.0975 126.447 32.2095 126.328 32.3536C126.21 32.4945 126.151 32.677 126.151 32.9011C126.151 33.2213 126.267 33.4631 126.501 33.6264C126.735 33.7897 127.033 33.8713 127.395 33.8713Z" fill="white"/>
<rect y="3.51001" width="36.6473" height="36.7882" rx="11.0801" fill="white"/>
<path d="M39.9122 3.21116C39.9862 3.21788 40.0603 3.2246 40.1365 3.23153C40.0477 3.75792 39.8509 4.21071 39.6268 4.69353C39.6892 4.63649 39.7517 4.57946 39.816 4.52069C39.8985 4.4454 39.9811 4.37012 40.0636 4.29483C40.1047 4.2573 40.1457 4.21976 40.1881 4.18108C40.7927 3.6299 40.7927 3.6299 41.0816 3.61897C41.1288 3.64814 41.1759 3.6773 41.2244 3.70735C41.2122 4.12028 41.1236 4.37069 40.9063 4.72012C40.7159 4.99847 40.7159 4.99847 40.6263 5.31215C40.6849 5.27849 40.7434 5.24482 40.8038 5.21013C40.8812 5.16749 40.9587 5.12484 41.0385 5.08091C41.115 5.03798 41.1915 4.99506 41.2703 4.95083C41.5251 4.8522 41.6182 4.86431 41.8637 4.97199C41.7922 5.31226 41.6782 5.5485 41.4792 5.83263C41.4317 5.90122 41.3841 5.96982 41.3352 6.04049C41.2987 6.09182 41.2623 6.14314 41.2247 6.19602C41.2966 6.20537 41.3685 6.21471 41.4425 6.22433C41.5365 6.23783 41.6306 6.25132 41.7274 6.26522C41.8674 6.28449 41.8674 6.28449 42.0102 6.30415C42.4067 6.40018 42.4067 6.40018 42.5438 6.61741C42.6123 7.22417 42.2905 7.71799 42.0087 8.22853C41.7498 8.72197 41.5574 9.25931 41.7222 9.81598C41.7434 9.86855 41.7647 9.92112 41.7865 9.97528C41.9536 10.3985 41.9241 10.7886 41.8237 11.2277C41.6052 11.6229 41.2126 11.8785 40.8604 12.1536C40.4735 12.5071 40.3642 12.8431 40.3112 13.3528C40.2648 13.7988 40.1977 14.1642 39.8437 14.4726C39.6712 14.6043 39.4938 14.728 39.3148 14.8506C38.4545 15.472 38.1121 16.3436 37.7416 17.3001C37.5964 17.6744 37.4467 18.0469 37.2977 18.4198C37.2679 18.4948 37.2381 18.5697 37.2074 18.647C36.9482 19.2976 36.6804 19.944 36.4019 20.5866C36.3558 20.693 36.3101 20.7996 36.2648 20.9064C36.0253 21.4707 35.7624 22.0086 35.4428 22.5323C35.415 22.5783 35.3871 22.6244 35.3584 22.6718C35.0683 23.1322 34.6913 23.4914 34.2923 23.8569C32.7452 25.2149 32.7452 25.2149 31.8584 26.9848C31.9966 27.4667 32.3916 27.8013 32.8199 28.0447C32.9626 28.1166 33.1064 28.1849 33.2515 28.2519C33.3231 28.2859 33.3231 28.2859 33.3962 28.3205C33.4918 28.3656 33.5876 28.4101 33.6837 28.4539C33.7855 28.5004 33.8869 28.5477 33.9879 28.596C34.415 28.7937 34.8412 28.9111 35.2991 29.0151C35.3744 29.0328 35.4497 29.0505 35.5272 29.0688C35.7661 29.1249 36.0053 29.1801 36.2444 29.2353C38.9701 29.867 38.9701 29.867 39.2016 30.1447C39.1897 30.3275 39.1897 30.3275 39.0929 30.5119C38.812 30.6292 38.5426 30.6931 38.243 30.7364C38.2422 30.7936 38.2414 30.8508 38.2406 30.9097C38.2372 30.9844 38.2338 31.059 38.2303 31.1359C38.228 31.2101 38.2256 31.2842 38.2232 31.3606C38.1683 31.5592 38.1683 31.5592 38.0192 31.6832C37.655 31.7819 37.3166 31.7416 36.9433 31.712C36.1912 31.6655 35.548 31.7048 34.8169 31.8904C34.7595 31.9047 34.702 31.9189 34.6429 31.9336C34.5333 31.9612 34.4241 31.99 34.3153 32.0205C33.0847 32.3381 31.7409 32.2426 30.4827 32.2237C30.3178 32.2216 30.1528 32.2195 29.9879 32.2175C29.7453 32.2144 29.5027 32.2113 29.2601 32.208C28.8436 32.2023 28.4273 32.1984 28.0108 32.1982C23.8194 32.1955 19.7536 30.8635 16.7352 27.8471C16.6946 27.8062 16.6541 27.7652 16.6123 27.723C14.1687 25.2688 9.98422 23.4366 6.54434 23.1979C5.91607 23.146 5.36226 22.9962 4.7685 22.7906C4.0323 22.5386 3.28125 22.4083 2.51378 22.2896C2.52892 22.126 2.52892 22.126 2.62252 21.9224C2.81795 21.7873 3.03329 21.6979 3.2501 21.6023C3.91541 21.2929 4.54065 20.9385 5.16755 20.5582C6.03054 20.0359 6.03054 20.0359 6.56098 20.0693C6.62602 20.0724 6.69106 20.0755 6.75807 20.0787C7.52445 20.2469 8.15638 20.7304 8.78597 21.1747C9.56882 21.715 10.4198 21.9568 11.3234 22.222C11.3802 22.2388 11.4369 22.2555 11.4954 22.2728C13.1259 22.7529 14.7452 23.09 16.4338 23.2939C16.5372 23.3066 16.6405 23.3193 16.7439 23.332C16.9932 23.3625 17.2425 23.3928 17.4919 23.423C17.3963 23.2004 17.3001 22.978 17.2037 22.7558C17.1736 22.6863 17.1434 22.6168 17.1124 22.5452C16.9379 22.146 16.7581 21.7502 16.5704 21.3571C16.5312 21.2747 16.4919 21.1923 16.4515 21.1074C16.375 20.9478 16.298 20.7885 16.2203 20.6295C15.6678 19.475 15.6249 18.6559 16.0313 17.4517C16.1026 17.1671 16.095 16.9486 16.0701 16.6575C16.0741 15.8358 16.2966 15.1767 16.6477 14.4475C16.6808 14.3781 16.7138 14.3086 16.7479 14.237C17.2459 13.1972 17.7861 12.1837 18.3534 11.1805C18.3809 11.1316 18.4084 11.0827 18.4367 11.0323C19.4132 9.29995 19.4132 9.29995 20.1145 8.65373C20.2933 8.60399 20.2933 8.60399 20.4204 8.60609C20.5678 8.81221 20.6153 8.95556 20.5902 9.20832C20.5519 9.4124 20.5097 9.61449 20.4613 9.81643C20.5065 9.74742 20.5516 9.67842 20.5981 9.60732C20.8012 9.3948 20.8012 9.3948 21.0876 9.35481C21.1681 9.35901 21.2486 9.3632 21.3315 9.36752C21.4847 9.88837 21.3775 10.3462 21.2705 10.8703C21.319 10.8188 21.319 10.8188 21.3683 10.7663C21.4116 10.7219 21.4549 10.6775 21.4995 10.6318C21.5421 10.5876 21.5846 10.5433 21.6284 10.4977C21.7844 10.3734 21.8746 10.3425 22.0727 10.3398C22.2462 10.4944 22.2768 10.5849 22.3312 10.8157C22.3213 11.1985 22.2652 11.5639 22.1545 11.9309C22.2172 11.9026 22.2172 11.9026 22.2811 11.8737C22.3365 11.8501 22.3919 11.8264 22.449 11.8021C22.5036 11.7782 22.5583 11.7542 22.6146 11.7296C22.78 11.686 22.78 11.686 22.9392 11.7102C23.0724 11.788 23.0724 11.788 23.1502 11.9267C23.1987 12.116 23.2122 12.2899 23.2212 12.4849C23.2418 12.7939 23.2418 12.7939 23.4511 13.0148C23.5397 13.0672 23.5397 13.0672 23.63 13.1206C23.7506 13.418 23.7511 13.6809 23.7483 13.9986C23.7514 14.3449 23.7514 14.3449 23.9315 14.6185C24.0345 14.6787 24.1376 14.7385 24.2409 14.798C24.4343 14.9825 24.4195 15.1478 24.4402 15.4094C24.4769 15.8644 24.5714 16.0672 24.9166 16.3624C25.0882 16.5207 25.2006 16.6966 25.3234 16.8942C25.3831 16.8219 25.4427 16.7497 25.5041 16.6752C26.3389 15.6735 27.2361 14.7484 28.2083 13.8797C28.3702 13.7341 28.5268 13.5857 28.6821 13.4331C29.2569 12.8809 29.8829 12.3712 30.5344 11.9127C30.7794 11.7327 31.0081 11.5334 31.2402 11.3372C31.4561 11.1598 31.6808 10.9983 31.9084 10.8364C32.0759 10.7127 32.2346 10.5817 32.3935 10.4471C32.5927 10.2784 32.7932 10.1199 33.007 9.97017C33.8814 9.34153 34.667 8.63554 35.3902 7.83981C35.6012 7.6111 35.8195 7.38957 36.0373 7.16742C36.0825 7.12118 36.1278 7.07493 36.1744 7.02729C36.2663 6.93331 36.3582 6.83935 36.4502 6.74542C36.6766 6.51408 36.9025 6.28223 37.1284 6.05042C37.2185 5.95804 37.3085 5.86567 37.3986 5.77329C37.4655 5.70471 37.4655 5.70471 37.5337 5.63473C37.6688 5.49617 37.8039 5.35761 37.939 5.21904C37.9837 5.17323 38.0284 5.12743 38.0744 5.08023C38.1637 4.98869 38.2529 4.89717 38.3422 4.80564C38.5799 4.56187 38.8176 4.31799 39.0551 4.07396C39.1298 3.99726 39.1298 3.99726 39.206 3.91901C39.302 3.82034 39.3981 3.72163 39.4941 3.62289C39.8214 3.28682 39.8214 3.28682 39.9122 3.21116Z" fill="#009688"/>
</svg>
